<svg id="Group_10" data-name="Group 10" xmlns="http://www.w3.org/2000/svg" xmlns:xlink="http://www.w3.org/1999/xlink" width="141.491" height="41.306" viewBox="0 0 141.491 41.306">
  <defs>
    <clipPath id="clip-path">
      <rect id="Rectangle_1" data-name="Rectangle 1" width="141.491" height="41.306" fill="#fff"/>
    </clipPath>
  </defs>
  <g id="Group_1" data-name="Group 1" clip-path="url(#clip-path)">
    <path id="Path_1" data-name="Path 1" d="M99.974,0c0,.172-.012.344-.012.516q0,20.178,0,40.355v.43c-.755.007-1.484,0-2.26,0v-.372q0-13.132,0-26.265,0-7.126.007-14.253C97.7.276,97.707.142,97.7,0Z" transform="translate(-61.19)" fill="#fff"/>
    <path id="Path_2" data-name="Path 2" d="M0,43.925V10.289c.133-.005.259-.015.383-.015q4.849,0,9.7,0c2.831,0,5.662-.006,8.493.013a15.837,15.837,0,0,1,5.3.894,7.368,7.368,0,0,1,2.251,1.208A5.427,5.427,0,0,1,27.78,14.9a10.879,10.879,0,0,1,.539,2.762,19.137,19.137,0,0,1-.021,2.789,14.983,14.983,0,0,1-.612,3.178,3.76,3.76,0,0,1-2.353,2.47,10.071,10.071,0,0,1-1.933.558c-.113.021-.3-.009-.295.18s.189.151.305.166a9.1,9.1,0,0,1,2.023.465,7.318,7.318,0,0,1,.973.445,3.929,3.929,0,0,1,1.7,1.941,9.4,9.4,0,0,1,.763,3.367,21.225,21.225,0,0,1-.053,3.211,11.72,11.72,0,0,1-.837,3.588,5.01,5.01,0,0,1-2.369,2.617,11.22,11.22,0,0,1-3.281,1,27.215,27.215,0,0,1-4.345.283q-8.607,0-17.214,0H0m9.058-13.9c-.077.421-.064,6.214.012,6.468.038,0,.08.011.122.011,2.364,0,4.729.005,7.093-.011a8.2,8.2,0,0,0,2.149-.321,1.673,1.673,0,0,0,1.075-.878,3.732,3.732,0,0,0,.268-.728,6,6,0,0,0,.116-1.839,6.5,6.5,0,0,0-.159-1.12A1.664,1.664,0,0,0,18.36,30.26a10.9,10.9,0,0,0-2.388-.249c-2.2-.011-4.4,0-6.6,0-.105,0-.211.01-.31.015m-.031-6.3h5.1a1.957,1.957,0,0,1,.325.007,7.044,7.044,0,0,0,1.719.036A9.03,9.03,0,0,0,18.21,23.4a1.349,1.349,0,0,0,.849-.706,3.08,3.08,0,0,0,.262-.728,6.362,6.362,0,0,0,.031-2.1,4.42,4.42,0,0,0-.182-.788,1.622,1.622,0,0,0-1.109-1.094,5.353,5.353,0,0,0-1.633-.238c-2.353-.008-4.706,0-7.059,0H9.026Z" transform="translate(0 -6.432)" fill="#fff"/>
    <path id="Path_3" data-name="Path 3" d="M209.015,28.016c.018-1.523.006-3.126.062-4.726a26.619,26.619,0,0,1,.706-5.624,10.315,10.315,0,0,1,1.318-3.092,7.305,7.305,0,0,1,3.147-2.731,20.391,20.391,0,0,1,3.731-1.224A25.293,25.293,0,0,1,224.2,9.9c1.074.009,2.148.019,3.22.074a23.38,23.38,0,0,1,6.255,1.114,9.982,9.982,0,0,1,3.066,1.607,7.235,7.235,0,0,1,2,2.566,15.962,15.962,0,0,1,1.3,4.4,23.965,23.965,0,0,1,.329,3.844c.006,1.5.03,3.009-.024,4.511-.045,1.263-.177,2.524-.3,3.784a30.543,30.543,0,0,1-.79,4.535,20.481,20.481,0,0,1-.91,2.773,5.757,5.757,0,0,1-2.379,2.675,11.624,11.624,0,0,1-3.394,1.363,23.694,23.694,0,0,1-3.458.589,42.916,42.916,0,0,1-6.564.145c-.639-.031-1.281-.032-1.917-.092a20.993,20.993,0,0,1-5.81-1.334c-.392-.155-.781-.324-1.157-.514a7.05,7.05,0,0,1-2.661-2.471,11.121,11.121,0,0,1-1.424-3.43,18.678,18.678,0,0,1-.52-4.372c-.025-1.19-.036-2.381-.054-3.65m22.091-1.306h.023c0-1.309.026-2.619-.009-3.928a9.628,9.628,0,0,0-.5-2.768,3.042,3.042,0,0,0-2.011-2.008c-.133-.046-.268-.086-.4-.125a7.851,7.851,0,0,0-1.866-.246,24.5,24.5,0,0,0-3.736.123,8.088,8.088,0,0,0-2.147.493,2.437,2.437,0,0,0-1.514,1.7,15.531,15.531,0,0,0-.49,3.169c-.081,1.1-.139,2.2-.155,3.307a40.074,40.074,0,0,0,.138,5.383,10.889,10.889,0,0,0,.53,2.435,2.133,2.133,0,0,0,.859,1.111,5.345,5.345,0,0,0,1.008.513,8.45,8.45,0,0,0,2.595.387,19.641,19.641,0,0,0,3.15-.128,7.623,7.623,0,0,0,2.315-.613,2.61,2.61,0,0,0,1.329-1.236,7.167,7.167,0,0,0,.451-1.178,14.137,14.137,0,0,0,.431-3.6c.014-.93,0-1.861,0-2.792" transform="translate(-130.904 -6.197)" fill="#fff"/>
    <path id="Path_4" data-name="Path 4" d="M329.129,20.339h-8.537c-.015-.246-.03-.471-.043-.7a5.656,5.656,0,0,0-.263-1.464,1.911,1.911,0,0,0-1.217-1.259A6.9,6.9,0,0,0,317,16.55a21.853,21.853,0,0,0-3.637.118,12.47,12.47,0,0,0-1.459.314,1.983,1.983,0,0,0-1.456,1.474,4.646,4.646,0,0,0-.1,1.772,5.392,5.392,0,0,0,.145.862,2.025,2.025,0,0,0,1.626,1.544,5.506,5.506,0,0,0,.933.126q2.24.137,4.482.256a34.328,34.328,0,0,1,5.7.759c.908.2,1.806.456,2.7.706a5.065,5.065,0,0,1,3.325,3.017,10.543,10.543,0,0,1,.783,3,25.1,25.1,0,0,1,.115,3.695,16.108,16.108,0,0,1-.619,4.322,5.505,5.505,0,0,1-1.971,2.9,9.613,9.613,0,0,1-4.126,1.81,25.616,25.616,0,0,1-5.01.466c-1.768-.013-3.536.019-5.3-.034a27.646,27.646,0,0,1-6.273-.825c-.71-.188-1.4-.444-2.1-.694a3.5,3.5,0,0,1-1.315-.931,6.167,6.167,0,0,1-1.326-2.321,14.273,14.273,0,0,1-.7-3.391c-.075-.829-.1-1.662-.148-2.493-.006-.1.008-.21.014-.345l8.564-.05c.008.132.018.246.021.361a6.66,6.66,0,0,0,.336,1.974,2.34,2.34,0,0,0,2.11,1.666,8.332,8.332,0,0,0,.94.067c1.54.007,3.081,0,4.621,0a6.168,6.168,0,0,0,1.729-.267,2.072,2.072,0,0,0,1.543-1.672,6.025,6.025,0,0,0-.012-2.7,1.8,1.8,0,0,0-1.3-1.4,10.881,10.881,0,0,0-2.563-.4c-1.05-.062-2.1-.118-3.149-.187-.9-.059-1.8-.111-2.691-.207a23.7,23.7,0,0,1-6.138-1.361c-.141-.055-.279-.118-.42-.174a4.549,4.549,0,0,1-2.495-2.557,12.285,12.285,0,0,1-.9-3.574,23.237,23.237,0,0,1-.124-4.018,11.474,11.474,0,0,1,.587-3.213,7.094,7.094,0,0,1,2.247-3.315,7.389,7.389,0,0,1,2.619-1.262,13.833,13.833,0,0,1,3.329-.538c1.224-.047,2.446-.144,3.671-.193a45.315,45.315,0,0,1,5.98.148,27.072,27.072,0,0,1,5.447,1.057,4.538,4.538,0,0,1,2.321,1.641,7.42,7.42,0,0,1,1.248,2.863,16.419,16.419,0,0,1,.389,4.48c-.006.161-.035.321-.057.508" transform="translate(-188.677 -6.014)" fill="#fff"/>
    <path id="Path_5" data-name="Path 5" d="M134.943,35.344v8.562h-9c-.064-.242-.077-33.244-.011-33.614.089-.006.183-.018.277-.018,4.588,0,9.177,0,13.766.021a33.752,33.752,0,0,1,7.1.76,16.962,16.962,0,0,1,3.478,1.16,4.582,4.582,0,0,1,1.557,1.2,8.276,8.276,0,0,1,1.635,3.285,20.219,20.219,0,0,1,.582,3.385,38.826,38.826,0,0,1,.114,4.671,18.78,18.78,0,0,1-.5,4.246,8.772,8.772,0,0,1-1.707,3.537,5.689,5.689,0,0,1-2.5,1.754,16.276,16.276,0,0,1-5.313.995c-3,.031-6.009.036-9.014.052h-.475m.012-7.808h.395c1.4,0,2.8-.008,4.2,0a21.842,21.842,0,0,0,2.726-.134,6.606,6.606,0,0,0,1.516-.346,1.678,1.678,0,0,0,1.046-1.078,5.573,5.573,0,0,0,.26-1.333,20.505,20.505,0,0,0,0-3.274,8.3,8.3,0,0,0-.312-1.818,2.12,2.12,0,0,0-1.507-1.514,7.7,7.7,0,0,0-2.216-.289c-1.951-.026-3.9-.009-5.854-.007a2.336,2.336,0,0,0-.248.026Z" transform="translate(-78.844 -6.435)" fill="#fff"/>
  </g>
</svg>
