<svg xmlns="http://www.w3.org/2000/svg" width="80.728" height="77.892" viewBox="0 0 80.728 77.892">
  <g id="Service" transform="translate(0.492 0.5)">
    <g id="Group_140" data-name="Group 140" transform="translate(0 0)">
      <path id="Path_339" data-name="Path 339" d="M79.736,59.158c-.153.674-.3,1.35-.461,2.022A15.739,15.739,0,0,1,75.968,67.7c-.694.827-1.3.97-1.919.48A1.4,1.4,0,0,1,74.13,66.2a13.74,13.74,0,1,0-9.481,4.85,14.253,14.253,0,0,0,5.137-1.4c.3-.145.7-.364.937-.266a2,2,0,0,1,1.031.877,1.028,1.028,0,0,1-.613,1.346,15.932,15.932,0,0,1-8.865,1.8,16.112,16.112,0,0,1-9.858-4.479,1.024,1.024,0,0,0-.86-.148c-1.2.392-2.38.873-3.582,1.274a.62.62,0,0,0-.5.73c.026.6.011,1.193.005,1.79A4.157,4.157,0,0,1,43.3,76.863q-4.9.056-9.81,0a4.168,4.168,0,0,1-4.179-4.234c-.016-.777.245-1.745-.124-2.275s-1.374-.57-2.082-.87c-1.38-.588-2.77-1.161-4.108-1.835a.817.817,0,0,0-1.18.209,16.53,16.53,0,0,1-1.322,1.319,4.047,4.047,0,0,1-5.695-.034q-3.6-3.5-7.1-7.1a4.039,4.039,0,0,1,.046-5.747c.572-.6,1.207-1.135,1.671-1.566-.94-2.395-1.8-4.608-2.691-6.807a.828.828,0,0,0-.6-.394c-.749-.053-1.5,0-2.256-.041A4.045,4.045,0,0,1,.011,43.464q-.023-5.023,0-10.045a4.042,4.042,0,0,1,3.856-4.014c.751-.035,1.507.02,2.255-.044a.9.9,0,0,0,.624-.471c.877-2.152,1.716-4.321,2.68-6.772-.376-.331-.988-.81-1.532-1.358a4.1,4.1,0,0,1,.015-6.145q3.319-3.343,6.662-6.661a4.128,4.128,0,0,1,6.153-.021c.538.522,1.025,1.337,1.648,1.461.566.113,1.272-.558,1.938-.828,1.462-.591,2.93-1.177,4.417-1.7a.722.722,0,0,0,.59-.82,14.728,14.728,0,0,1,.1-2.558,4.024,4.024,0,0,1,4-3.456c3.321-.044,6.645-.05,9.966,0a4.136,4.136,0,0,1,4.107,4.214c.012.777-.252,1.745.115,2.278s1.371.566,2.076.87c1.425.613,2.845,1.241,4.248,1.9.385.182.631.21.936-.132A20.4,20.4,0,0,1,56.35,7.687a4.021,4.021,0,0,1,5.574-.009q3.669,3.543,7.214,7.21a4.021,4.021,0,0,1,.043,5.575c-.59.651-1.274,1.218-1.852,1.765.757,1.77,1.463,3.4,2.151,5.043.287.684.352,1.635.856,2,.479.35,1.4.1,2.123.11a4.069,4.069,0,0,1,4.2,3.113,5.737,5.737,0,0,1,.124,1.386c.01,2.958-.023,5.917.018,8.876a4.606,4.606,0,0,1-1.311,3.648c.34.423.672.812.977,1.221a15.762,15.762,0,0,1,3.124,7.6,1.464,1.464,0,0,0,.141.347ZM47.495,60.1c.164.014.109-.006.064.008-.148.046-.294.1-.438.157A23.5,23.5,0,0,1,15.01,40.69,23,23,0,0,1,22.5,21.151c.94-.887,1.654-1,2.19-.377s.336,1.24-.587,2.1a20.373,20.373,0,0,0-6.781,14.158c-.426,7.844,2.662,14.123,9.013,18.758a19.076,19.076,0,0,0,6.235,2.964v-.837c0-3.426-.014-6.852.014-10.278a1.078,1.078,0,0,0-.681-1.12,12.937,12.937,0,0,1-7.247-10.893A12.911,12.911,0,0,1,30.743,23.37c.959-.65,2.021-1.185,3.188-.518,1.144.655,1.142,1.807,1.133,2.948-.02,2.7-.042,5.4-.017,8.1a3.7,3.7,0,0,0,3.195,3.571c1.39.152,3.03-1.21,3.408-2.88a6.351,6.351,0,0,0,.1-1.39c0-2.725-.039-5.451,0-8.175.031-2.013,1.489-2.932,3.346-2.161a7.188,7.188,0,0,1,1.349.76,13.374,13.374,0,0,1-1.614,22.93.951.951,0,0,0-.625,1c.027,3.478.013,6.956.016,10.433,0,.228.02.455.037.824.967-.369,1.848-.723,2.741-1.038a.73.73,0,0,0,.535-.8,15.521,15.521,0,0,1,1.336-6.028,16.127,16.127,0,0,1,9.755-8.916c.279-.1.657-.4.69-.643a20.365,20.365,0,0,0-2.273-12.861A20.716,20.716,0,0,0,40.8,17.451a20.494,20.494,0,0,0-12.128,2.217,1.219,1.219,0,0,1-1.806-.414c-.319-.647-.036-1.276.761-1.693a21.969,21.969,0,0,1,9.445-2.578A23.012,23.012,0,0,1,57.53,24.849a22.645,22.645,0,0,1,4.293,15.472c-.023.321,0,.646,0,1a16.459,16.459,0,0,1,12.108,3.611,7.151,7.151,0,0,0,.5-1.708c.042-3.192.029-6.384.016-9.577a1.781,1.781,0,0,0-1.963-1.91c-.986-.009-1.973-.017-2.958,0a1.322,1.322,0,0,1-1.46-1.106,30.787,30.787,0,0,0-3.13-7.588c-.487-.848-.423-1.21.281-1.922.675-.683,1.366-1.351,2.034-2.041a1.754,1.754,0,0,0,.022-2.737Q63.9,12.947,60.5,9.579a1.776,1.776,0,0,0-2.745.023c-.726.7-1.435,1.427-2.146,2.147a1.248,1.248,0,0,1-1.683.236,30.25,30.25,0,0,0-7.724-3.2,1.277,1.277,0,0,1-1.075-1.4c.016-.986.02-1.973,0-2.959a1.784,1.784,0,0,0-2.026-2q-4.71-.014-9.421,0A1.737,1.737,0,0,0,31.7,4.386c-.023,1.011,0,2.024-.011,3.036A1.265,1.265,0,0,1,30.64,8.767a30.43,30.43,0,0,0-7.723,3.2,1.285,1.285,0,0,1-1.749-.244q-1.03-1.062-2.092-2.093a1.788,1.788,0,0,0-2.8-.03q-3.371,3.347-6.717,6.717a1.777,1.777,0,0,0,.014,2.795c.687.707,1.382,1.408,2.093,2.091a1.283,1.283,0,0,1,.26,1.746,30.566,30.566,0,0,0-3.2,7.723,1.288,1.288,0,0,1-1.407,1.067c-1.012-.013-2.024-.011-3.036,0a1.777,1.777,0,0,0-1.934,1.87q-.035,4.827,0,9.655a1.778,1.778,0,0,0,1.919,1.886c1.012.012,2.024.015,3.036,0A1.286,1.286,0,0,1,8.72,46.2a30.51,30.51,0,0,0,3.2,7.724,1.286,1.286,0,0,1-.242,1.75c-.745.722-1.486,1.451-2.2,2.205A1.725,1.725,0,0,0,9.5,60.5q3.395,3.434,6.826,6.829a1.763,1.763,0,0,0,2.688-.007c.71-.684,1.414-1.377,2.09-2.093a1.348,1.348,0,0,1,1.871-.283,29.083,29.083,0,0,0,7.581,3.141A1.368,1.368,0,0,1,31.7,69.61c-.017.934-.014,1.869,0,2.8.023,1.436.627,2.051,2.037,2.054q4.671.013,9.343,0c1.389,0,2.02-.648,2.045-2.062.016-.856,0-1.712,0-2.57,0-1.267.162-1.437,1.355-1.8,1.326-.407,2.635-.87,3.769-1.248-.938-2.275-1.828-4.433-2.755-6.682M32.707,25.032a2.541,2.541,0,0,0-.358.133,8.63,8.63,0,0,0-.789.5A10.611,10.611,0,0,0,27,35.421a10.61,10.61,0,0,0,6.656,9.3,1.886,1.886,0,0,1,1.314,1.995c-.043,3.865-.017,7.729-.017,11.594v.977a19.379,19.379,0,0,0,6.905,0v-.867c0-3.891.032-7.782-.021-11.672A1.922,1.922,0,0,1,43.187,44.7a10.581,10.581,0,0,0,6.6-9.173,10.639,10.639,0,0,0-4.653-9.94,11.454,11.454,0,0,0-1.048-.608c0,.5,0,.859,0,1.218,0,2.724.056,5.448-.029,8.169-.1,3.027-3.22,5.779-6.064,5.46a6.022,6.022,0,0,1-5.28-5.8c-.035-2.593-.006-5.188-.005-7.781V25.032" transform="translate(0 0)" fill="#4a4a4a" stroke="#4a4a4a" stroke-width="1"/>
      <path id="Path_340" data-name="Path 340" d="M70.268,63.136c1.323-1.576,2.621-3.119,3.916-4.666a3.948,3.948,0,0,1,3.622-1.55,3.8,3.8,0,0,1,3.3,2.494,3.914,3.914,0,0,1-.7,4.149q-2.513,3.021-5.047,6.023c-.533.635-1.049,1.287-1.607,1.9a3.949,3.949,0,0,1-5.585.422q-1.893-1.554-3.74-3.166a4.014,4.014,0,1,1,5.2-6.117c.2.159.4.313.652.51m8.759-1.989a1.7,1.7,0,0,0-1.014-1.762,1.661,1.661,0,0,0-1.957.541c-1.544,1.82-3.064,3.659-4.61,5.476a1.2,1.2,0,0,1-2,.169c-.44-.363-.861-.749-1.311-1.1a1.647,1.647,0,1,0-2.125,2.51q1.78,1.567,3.615,3.073a1.579,1.579,0,0,0,2.405-.209q3.3-3.886,6.543-7.815a3.733,3.733,0,0,0,.454-.883" transform="translate(-8.453 -7.637)" fill="#4a4a4a" stroke="#4a4a4a" stroke-width="1"/>
    </g>
  </g>
</svg>
