<svg xmlns="http://www.w3.org/2000/svg" xmlns:xlink="http://www.w3.org/1999/xlink" width="79.55" height="76.891" viewBox="0 0 79.55 76.891">
  <defs>
    <clipPath id="clip-path">
      <rect id="Rectangle_263" data-name="Rectangle 263" width="79.55" height="76.891" fill="#4a4a4a"/>
    </clipPath>
  </defs>
  <g id="Lan" transform="translate(0)">
    <g id="Group_133" data-name="Group 133" transform="translate(0 0)" clip-path="url(#clip-path)">
      <path id="Path_320" data-name="Path 320" d="M0,71.719V5.217C.9,1.67,3.471-.017,7.616,0,29.258.1,50.9.045,72.545.046c.414,0,.828,0,1.242.026a6.123,6.123,0,0,1,5.758,6.085q.012,32.309-.007,64.619a6.1,6.1,0,0,1-.275,1.75c-.842,2.768-3.172,4.365-6.329,4.365q-33.165,0-66.328,0c-.259,0-.518-.009-.777-.022a5.532,5.532,0,0,1-4.349-2.21A18.142,18.142,0,0,1,0,71.719m39.738,1.414c11.056,0,22.112-.028,33.168.026a2.764,2.764,0,0,0,2.942-2.98q-.046-31.692,0-63.384a2.785,2.785,0,0,0-2.982-3.019q-33.091.064-66.181,0A2.788,2.788,0,0,0,3.7,6.8q.053,31.692,0,63.384A2.774,2.774,0,0,0,6.648,73.16c11.029-.057,22.06-.028,33.09-.028" transform="translate(0 0)" fill="#4a4a4a"/>
      <path id="Path_321" data-name="Path 321" d="M52.957,55.839c0,1.719,0,3.472,0,5.225,0,1.568-.7,2.263-2.275,2.264q-12.193,0-24.386,0c-1.534,0-2.239-.7-2.243-2.216,0-1.757,0-3.514,0-5.385H20.238c-2.739,0-3.127-.39-3.128-3.135v-7.43H11.219c-1.876,0-2.5-.628-2.5-2.512V13.061c0-1.869.655-2.528,2.507-2.528h54.6c1.8,0,2.476.673,2.476,2.482q0,14.834,0,29.667c0,1.843-.634,2.479-2.458,2.48H59.9v.861q0,3.651,0,7.3c0,1.73-.674,2.4-2.382,2.4q-2.174.007-4.349.018c-.045,0-.089.038-.212.094M56.1,52v-.936c0-2.46-.007-4.919,0-7.378a1.96,1.96,0,0,1,2.221-2.251c1.036-.006,2.071,0,3.107,0h3V14.338H12.563V41.431c1.443,0,2.836.033,4.227-.006,3.9-.111,4.21.155,4.123,4.091-.04,1.863-.008,3.728,0,5.591,0,.276.023.551.039.893,1.691,0,3.316-.011,4.942,0a1.817,1.817,0,0,1,1.866,1.531,5.712,5.712,0,0,1,.025.853c0,1.7,0,3.4,0,5.128H49.229c0-1.838,0-3.622,0-5.406A1.876,1.876,0,0,1,51.323,52c1.55-.009,3.1,0,4.781,0" transform="translate(1.271 1.537)" fill="#4a4a4a"/>
      <path id="Path_322" data-name="Path 322" d="M25.094,25.054c0-1.5-.007-3,0-4.5A1.876,1.876,0,0,1,27,18.477a1.842,1.842,0,0,1,1.838,2.047q.019,4.538,0,9.074a1.9,1.9,0,0,1-1.884,2.1A1.946,1.946,0,0,1,25.1,29.553c-.007-1.5,0-3,0-4.5" transform="translate(3.661 2.696)" fill="#4a4a4a"/>
      <path id="Path_323" data-name="Path 323" d="M33.088,25.1c0-1.525,0-3.05,0-4.576a1.867,1.867,0,1,1,3.72-.044q.01,4.615,0,9.229a1.864,1.864,0,1,1-3.717-.034c-.009-1.525,0-3.05,0-4.576" transform="translate(4.827 2.696)" fill="#4a4a4a"/>
      <path id="Path_324" data-name="Path 324" d="M41.065,25.049c0-1.5-.011-3,0-4.5a1.877,1.877,0,1,1,3.737-.022q.014,4.576,0,9.152a1.867,1.867,0,0,1-1.446,1.947,1.755,1.755,0,0,1-1.993-.826,2.87,2.87,0,0,1-.288-1.254c-.033-1.5-.013-3-.013-4.5" transform="translate(5.99 2.696)" fill="#4a4a4a"/>
      <path id="Path_325" data-name="Path 325" d="M17.108,25.055c0-1.552-.018-3.1.007-4.653a1.893,1.893,0,0,1,1.369-1.861,1.774,1.774,0,0,1,2.034.746,2.818,2.818,0,0,1,.348,1.317c.029,2.972.026,5.946.01,8.92a1.936,1.936,0,0,1-1.9,2.178,1.975,1.975,0,0,1-1.867-2.225c-.008-1.474,0-2.947,0-4.421" transform="translate(2.495 2.695)" fill="#4a4a4a"/>
      <path id="Path_326" data-name="Path 326" d="M52.794,25.1c0,1.552.023,3.1-.008,4.653a1.853,1.853,0,0,1-1.452,1.868,1.8,1.8,0,0,1-2-.82,1.838,1.838,0,0,1-.274-.871c-.017-3.257-.041-6.513.013-9.77a1.741,1.741,0,0,1,1.937-1.682,1.887,1.887,0,0,1,1.784,2.045c.018,1.525,0,3.052,0,4.577Z" transform="translate(7.154 2.696)" fill="#4a4a4a"/>
    </g>
  </g>
</svg>
