<svg id="OS" xmlns="http://www.w3.org/2000/svg" width="76.882" height="76.892" viewBox="0 0 76.882 76.892">
  <g id="Group_128" data-name="Group 128" transform="translate(0)">
    <path id="Path_268" data-name="Path 268" d="M38.439,0A38.446,38.446,0,1,1,0,38.474,38.47,38.47,0,0,1,38.439,0m-.03,73.538A35.088,35.088,0,1,0,3.355,37.719,35.057,35.057,0,0,0,38.41,73.538" transform="translate(0)" fill="#4a4a4a"/>
    <path id="Path_269" data-name="Path 269" d="M25.966,23.716a12.005,12.005,0,0,1,5.5,1.243,10.228,10.228,0,0,1,4.408,4.363,14.673,14.673,0,0,1,1.615,5.359,20.345,20.345,0,0,1,.1,3.831,14.937,14.937,0,0,1-2.008,6.872,10.159,10.159,0,0,1-6.762,4.781,13.445,13.445,0,0,1-4.1.253,11.064,11.064,0,0,1-5.865-2.158,10.667,10.667,0,0,1-3.3-4.275,15.557,15.557,0,0,1-1.232-5.013,18.122,18.122,0,0,1,.906-7.937,10.587,10.587,0,0,1,5.5-6.219,11.1,11.1,0,0,1,3.931-1.021c.437-.033.874-.052,1.312-.077m-.011,3.315c-.678.077-1.363.113-2.03.241a6.824,6.824,0,0,0-4.376,2.7,10.621,10.621,0,0,0-1.858,5.164,16.341,16.341,0,0,0-.008,3.8,11.284,11.284,0,0,0,1.445,4.639,6.807,6.807,0,0,0,3.955,3.127,10.014,10.014,0,0,0,3.87.359A7.674,7.674,0,0,0,30.527,45.9a7.582,7.582,0,0,0,3.013-4.076,14.811,14.811,0,0,0,.7-5.74,12.763,12.763,0,0,0-1.069-4.645,7.091,7.091,0,0,0-3.114-3.433,9.191,9.191,0,0,0-4.1-.977" transform="translate(0.816 1.36)" fill="#4a4a4a"/>
    <path id="Path_270" data-name="Path 270" d="M41.116,43.774h2.232c.308,0,.614-.007.921.006.066,0,.174.069.185.122a3.276,3.276,0,0,0,1.7,2.186,6.608,6.608,0,0,0,2.724.866,16.488,16.488,0,0,0,2.2.149,6.526,6.526,0,0,0,3.971-1.294,2.675,2.675,0,0,0,1-1.843,6.585,6.585,0,0,0,.021-1.567A2.217,2.217,0,0,0,54.9,40.892a14.222,14.222,0,0,0-3.361-1.571c-1.661-.593-3.336-1.147-4.989-1.76a11.036,11.036,0,0,1-3.1-1.692A5.829,5.829,0,0,1,41.2,32.348a6.653,6.653,0,0,1,.4-3.733,7.443,7.443,0,0,1,5.212-4.505,11.679,11.679,0,0,1,4.241-.324A12.713,12.713,0,0,1,55.286,24.8a6.671,6.671,0,0,1,4.1,4.874c.048.229.07.464.107.717-.1.01-.165.021-.232.021-.964,0-1.93,0-2.895.005-.173,0-.228-.05-.264-.226a3.067,3.067,0,0,0-1.213-1.788,6.159,6.159,0,0,0-2.87-1.138,11.509,11.509,0,0,0-3.06-.16A6.394,6.394,0,0,0,45.7,28.282a3.189,3.189,0,0,0-1.223,2.484,5.1,5.1,0,0,0,.03,1.15,2.07,2.07,0,0,0,1,1.329,11.876,11.876,0,0,0,2.929,1.444c1.652.591,3.317,1.143,4.966,1.741a12.647,12.647,0,0,1,3.756,2,5.754,5.754,0,0,1,2.3,4.006,6.842,6.842,0,0,1-1.477,4.98,7.862,7.862,0,0,1-4.994,2.846,13.365,13.365,0,0,1-7.489-.8,6.881,6.881,0,0,1-3.726-3.27,6.646,6.646,0,0,1-.652-2.117,2.275,2.275,0,0,1,0-.3" transform="translate(2.356 1.36)" fill="#4a4a4a"/>
  </g>
</svg>
