<svg xmlns="http://www.w3.org/2000/svg" width="64.411" height="76.892" viewBox="0 0 64.411 76.892">
  <g id="Memory_" data-name="Memory " transform="translate(0)">
    <g id="Group_129" data-name="Group 129" transform="translate(0 0)">
      <path id="Path_271" data-name="Path 271" d="M0,38.364Q0,22.885,0,7.4A8.046,8.046,0,0,1,1.2,2.7,5.4,5.4,0,0,1,5.778.005Q24.8-.006,43.829.015A9.207,9.207,0,0,1,50.6,2.99q5.548,5.722,11.019,11.52A10.074,10.074,0,0,1,64.41,21.7q0,24.017,0,48.034a7.677,7.677,0,0,1-1.423,4.735,5.982,5.982,0,0,1-5.17,2.421q-19.8-.033-39.6-.012-5.809,0-11.621,0A6.2,6.2,0,0,1,.1,70.965a17.654,17.654,0,0,1-.092-1.847Q0,53.742,0,38.364m2.958.117q0,15.735.005,31.469c0,2.928,1.209,4.1,4.113,4.1H57.361c2.844,0,4.086-1.2,4.088-4.025q.013-24.27.011-48.541A7.053,7.053,0,0,0,59.383,16.4c-3.488-3.636-7-7.252-10.443-10.927A7.708,7.708,0,0,0,43,2.943q-18.252.022-36.5.008A3,3,0,0,0,3.159,5.5a8.087,8.087,0,0,0-.191,2.03Q2.95,23,2.961,38.481" transform="translate(0 0)" fill="#4a4a4a"/>
      <path id="Path_272" data-name="Path 272" d="M31.689,38.784q7.194,0,14.388,0c3.856,0,6.164,2.264,6.184,6.1q.036,7.093,0,14.185c-.018,3.783-2.319,6.107-6.082,6.115q-14.594.027-29.187,0c-3.77-.006-6.074-2.326-6.091-6.1q-.032-7.093,0-14.184c.018-3.805,2.369-6.109,6.194-6.113q7.3-.008,14.593,0m-.1,23.451q7.351,0,14.7,0,3.015-.006,3.022-3.044.013-7.2,0-14.394c0-2.03-.983-3.041-3.026-3.044q-14.7-.022-29.4,0c-2.037,0-3.017,1.017-3.021,3.048q-.013,7.146,0,14.293c0,2.162.976,3.139,3.13,3.142q7.3.01,14.6,0" transform="translate(0.624 2.223)" fill="#4a4a4a"/>
      <path id="Path_273" data-name="Path 273" d="M19.959,14.263c0-1.4-.01-2.8,0-4.2.01-1.019.54-1.627,1.408-1.66a1.422,1.422,0,0,1,1.553,1.531q.063,4.354,0,8.709a1.4,1.4,0,0,1-1.574,1.5c-.875-.044-1.376-.633-1.384-1.675-.013-1.4,0-2.8,0-4.2" transform="translate(1.144 0.481)" fill="#4a4a4a"/>
      <path id="Path_274" data-name="Path 274" d="M13.889,14.241c0,1.369.01,2.738,0,4.109-.011,1.123-.6,1.807-1.523,1.794-.894-.013-1.446-.623-1.456-1.748q-.036-4.108,0-8.216C10.917,9,11.484,8.386,12.438,8.4s1.444.643,1.45,1.834c.006,1.334,0,2.67,0,4.005" transform="translate(0.624 0.481)" fill="#4a4a4a"/>
      <path id="Path_275" data-name="Path 275" d="M41.125,14.193c0,1.4.012,2.807,0,4.211-.012,1.066-.589,1.724-1.473,1.737-.909.014-1.491-.585-1.5-1.7q-.043-4.158,0-8.319c.012-1.157.624-1.77,1.584-1.723.895.042,1.388.665,1.395,1.786.007,1.334,0,2.67,0,4.005" transform="translate(2.185 0.481)" fill="#4a4a4a"/>
      <path id="Path_276" data-name="Path 276" d="M32.019,14.361c0,1.335.017,2.671-.005,4.006-.019,1.172-.58,1.8-1.525,1.774-.927-.024-1.415-.6-1.421-1.752q-.022-4.109,0-8.219c.005-1.183.552-1.794,1.513-1.77.915.022,1.42.615,1.434,1.748.018,1.4,0,2.808,0,4.212" transform="translate(1.666 0.481)" fill="#4a4a4a"/>
    </g>
  </g>
</svg>
