<svg xmlns="http://www.w3.org/2000/svg" width="93.519" height="76.893" viewBox="0 0 93.519 76.893">
  <g id="Wifi" transform="translate(0 -0.001)">
    <g id="Group_134" data-name="Group 134" transform="translate(0 0)">
      <path id="Path_327" data-name="Path 327" d="M0,21.639c.628-1.694,2.013-2.793,3.243-3.981A61.6,61.6,0,0,1,34.032,1.272,62.346,62.346,0,0,1,52.085.238a60.533,60.533,0,0,1,32.784,12.8,97.187,97.187,0,0,1,7.425,6.737,3.647,3.647,0,1,1-5.178,5.123,61.068,61.068,0,0,0-10.246-8.612,53.209,53.209,0,0,0-20.7-8.142A54.866,54.866,0,0,0,7.527,23.733c-.492.5-.965,1.018-1.491,1.476A3.637,3.637,0,0,1,.384,24.1C.248,23.83.128,23.554,0,23.282V21.639" transform="translate(0 0.001)" fill="#4a4a4a"/>
      <path id="Path_328" data-name="Path 328" d="M45.735,17.082c9.469.1,19.178,3.856,27.628,10.952,1,.84,1.95,1.742,2.888,2.653a3.656,3.656,0,0,1,.324,5.351,3.6,3.6,0,0,1-5.359-.061,39.85,39.85,0,0,0-9.96-7.3C47.791,22.045,34.838,23.1,22.486,31.507c-2.049,1.393-3.815,3.2-5.73,4.791a3.657,3.657,0,0,1-4.734-5.575A47.964,47.964,0,0,1,22.69,22.678c6.672-3.672,13.814-5.578,23.045-5.6" transform="translate(2.579 4.103)" fill="#4a4a4a"/>
      <path id="Path_329" data-name="Path 329" d="M40.861,34.295a24.155,24.155,0,0,1,12.482,3.358,44.86,44.86,0,0,1,5.5,4.031,3.642,3.642,0,1,1-4.809,5.457,20.48,20.48,0,0,0-9.237-5.076c-5.067-1.168-9.62.169-13.806,3.031-.95.65-1.788,1.46-2.686,2.185a3.651,3.651,0,0,1-4.876-5.434,26.946,26.946,0,0,1,15.222-7.409c.419-.06.851-.031,1.275-.058.394-.026.789-.071.939-.084" transform="translate(5.339 8.238)" fill="#4a4a4a"/>
      <path id="Path_330" data-name="Path 330" d="M32.689,58.282a6.021,6.021,0,1,1,6,6.061,6.073,6.073,0,0,1-6-6.061" transform="translate(7.851 12.551)" fill="#4a4a4a"/>
    </g>
  </g>
</svg>
