<svg id="Display" xmlns="http://www.w3.org/2000/svg" width="92.2" height="76.892" viewBox="0 0 92.2 76.892">
  <g id="Group_130" data-name="Group 130" transform="translate(0 0)">
    <path id="Path_277" data-name="Path 277" d="M92.2,68.709c-.153.507-.3,1.018-.462,1.522a9.548,9.548,0,0,1-8.568,6.61c-.36.023-.719.047-1.079.047q-36.018,0-72.033,0c-5.287,0-9.085-3.179-9.973-8.274A10.04,10.04,0,0,1,0,66.905Q0,38.449,0,9.991A9.551,9.551,0,0,1,9.431.03c.3-.017.6-.02.9-.02Q46.12.01,81.912,0c3.959,0,7.061,1.484,9.047,4.957A21.914,21.914,0,0,1,92.2,8.19ZM46.1,3.865q-17.915,0-35.83,0c-4.081,0-6.411,2.328-6.411,6.423q-.006,28.184.006,56.367a8.414,8.414,0,0,0,.2,2.05c.7,2.735,2.964,4.329,6.071,4.329q35.921,0,71.841,0c4.013,0,6.365-2.349,6.366-6.381q.006-28.182-.006-56.365a8.569,8.569,0,0,0-.188-2.053A5.756,5.756,0,0,0,82.2,3.867q-18.051-.007-36.1,0" transform="translate(0.001 0)" fill="#4a4a4a"/>
    <path id="Path_278" data-name="Path 278" d="M56.061,56.528c-1.53,0-3.062.047-4.59-.017a1.869,1.869,0,0,1-1.737-1.762,1.945,1.945,0,0,1,1.326-1.937,3.472,3.472,0,0,1,.976-.1c2.312-.007,4.623,0,6.934-.006A5.778,5.778,0,0,0,65.1,46.638c.032-2.371-.011-4.743.015-7.114.017-1.494.928-2.338,2.24-2.145a1.627,1.627,0,0,1,1.554,1.511,64.624,64.624,0,0,1-.109,9.438c-.657,5.04-4.534,8.13-9.678,8.236-1.021.021-2.041,0-3.062,0v-.038" transform="translate(11.711 8.796)" fill="#4a4a4a"/>
    <path id="Path_279" data-name="Path 279" d="M22.141,9.372c1.558,0,3.118-.046,4.674.017a1.866,1.866,0,0,1,1.741,1.754,1.936,1.936,0,0,1-1.316,1.938,3.314,3.314,0,0,1-.972.1c-2.308.009-4.617,0-6.925.006a5.78,5.78,0,0,0-6.153,6.126c-.023,2.367.016,4.737-.016,7.1a1.9,1.9,0,0,1-2.188,2.109,1.735,1.735,0,0,1-1.618-1.555,84.567,84.567,0,0,1,.194-9.78A9.172,9.172,0,0,1,18.188,9.4c1.313-.075,2.635-.012,3.954-.012v-.02" transform="translate(2.196 2.203)" fill="#4a4a4a"/>
  </g>
</svg>
