<svg xmlns="http://www.w3.org/2000/svg" width="98.799" height="76.892" viewBox="0 0 98.799 76.892">
  <g id="Printer" transform="translate(0)">
    <g id="Group_131" data-name="Group 131" transform="translate(0 0)">
      <path id="Path_280" data-name="Path 280" d="M83.15,7.359c-2.3,1.932-4.356,3.719-6.475,5.433a11.6,11.6,0,0,0-4.5,9.606C72.229,39.6,72.2,56.8,72.2,74v1.283H10.99c-.018-.328-.05-.662-.05-1q0-26.47,0-52.939a16.326,16.326,0,0,1,1.775-8.176,10.5,10.5,0,0,1,9.672-5.81q29.781-.024,59.563-.007h1.2M14.663,71.5H68.411V70.214q0-24.087,0-48.172a14.957,14.957,0,0,1,3.463-9.83c.264-.322.546-.63.925-1.065H71.634q-24.584,0-49.169-.022a6.249,6.249,0,0,0-5.3,2.634,12.871,12.871,0,0,0-2.493,8.021q-.016,24.324,0,48.648V71.5" transform="translate(2.388 1.605)" fill="#4a4a4a"/>
      <path id="Path_281" data-name="Path 281" d="M11.1,19.221v4.841A9.434,9.434,0,0,1,.088,15.5,43.677,43.677,0,0,1,.257,7.809,9.147,9.147,0,0,1,9.34.016C19.985-.01,30.629,0,41.274,0Q65.3,0,89.316.011a9.356,9.356,0,0,1,9.167,7.048,8.347,8.347,0,0,1,.3,2.155,58.946,58.946,0,0,1-.2,7.313,9.182,9.182,0,0,1-8.9,7.665c-4.222.033-8.445.007-12.723.007a7.641,7.641,0,0,1,.769-4.629c.11-.222.632-.333.966-.335,3.367-.023,6.736-.011,10.1-.013,3.215,0,5-1.8,5.006-5.017q0-2.144,0-4.286c-.007-3.094-1.814-4.91-4.911-4.91Q57.862,5,26.834,5.006q-8.437,0-16.873,0c-3.1,0-4.9,1.814-4.911,4.908q-.005,2.239,0,4.476a4.5,4.5,0,0,0,4.815,4.828c.439,0,.877,0,1.24,0" transform="translate(0 -0.001)" fill="#4a4a4a"/>
      <path id="Path_282" data-name="Path 282" d="M35.141,23.676h-13.9a1.249,1.249,0,0,1,0-2.5h13.9a1.249,1.249,0,1,1,0,2.5" transform="translate(4.363 4.621)" fill="#4a4a4a"/>
      <path id="Path_283" data-name="Path 283" d="M44.683,29.34H21.239a1.249,1.249,0,1,1,0-2.5H44.683a1.249,1.249,0,1,1,0,2.5" transform="translate(4.363 5.857)" fill="#4a4a4a"/>
      <path id="Path_284" data-name="Path 284" d="M38.236,35h-17a1.249,1.249,0,1,1,0-2.5h17a1.249,1.249,0,1,1,0,2.5" transform="translate(4.363 7.094)" fill="#4a4a4a"/>
      <path id="Path_285" data-name="Path 285" d="M35.141,40.669h-13.9a1.249,1.249,0,0,1,0-2.5h13.9a1.249,1.249,0,1,1,0,2.5" transform="translate(4.363 8.33)" fill="#4a4a4a"/>
      <path id="Path_286" data-name="Path 286" d="M41.331,46.334H21.24a1.249,1.249,0,1,1,0-2.5H41.331a1.249,1.249,0,1,1,0,2.5" transform="translate(4.363 9.566)" fill="#4a4a4a"/>
      <path id="Path_287" data-name="Path 287" d="M35.141,52h-13.9a1.249,1.249,0,0,1,0-2.5h13.9a1.249,1.249,0,1,1,0,2.5" transform="translate(4.363 10.802)" fill="#4a4a4a"/>
      <path id="Path_288" data-name="Path 288" d="M51.972,23.676H47.235a1.249,1.249,0,0,1,0-2.5h4.738a1.249,1.249,0,1,1,0,2.5" transform="translate(10.037 4.621)" fill="#4a4a4a"/>
      <path id="Path_289" data-name="Path 289" d="M51.972,29.34H47.235a1.249,1.249,0,0,1,0-2.5h4.738a1.249,1.249,0,1,1,0,2.5" transform="translate(10.037 5.857)" fill="#4a4a4a"/>
      <path id="Path_290" data-name="Path 290" d="M51.972,35H47.235a1.249,1.249,0,0,1,0-2.5h4.738a1.249,1.249,0,1,1,0,2.5" transform="translate(10.037 7.094)" fill="#4a4a4a"/>
      <path id="Path_291" data-name="Path 291" d="M51.972,40.669H47.235a1.249,1.249,0,0,1,0-2.5h4.738a1.249,1.249,0,1,1,0,2.5" transform="translate(10.037 8.33)" fill="#4a4a4a"/>
      <path id="Path_292" data-name="Path 292" d="M51.972,46.334H47.235a1.249,1.249,0,0,1,0-2.5h4.738a1.249,1.249,0,1,1,0,2.5" transform="translate(10.037 9.566)" fill="#4a4a4a"/>
      <path id="Path_293" data-name="Path 293" d="M51.972,52H47.235a1.249,1.249,0,0,1,0-2.5h4.738a1.249,1.249,0,1,1,0,2.5" transform="translate(10.037 10.802)" fill="#4a4a4a"/>
    </g>
  </g>
</svg>
