<svg xmlns="http://www.w3.org/2000/svg" width="65.128" height="61.185" viewBox="0 0 65.128 61.185">
  <g id="_03" data-name="03" transform="translate(0 0)">
    <g id="Group_58" data-name="Group 58" transform="translate(0 0)">
      <path id="Path_199" data-name="Path 199" d="M59.273,15.119a6.058,6.058,0,0,0-5.684-3.95h-.023l-42.058.156a6.084,6.084,0,0,0-5.66,3.935L.765,28.77A11.949,11.949,0,0,0,0,32.977v21.7a8.955,8.955,0,0,0,8.955,8.955H56.173a8.955,8.955,0,0,0,8.955-8.955V33.629a15.642,15.642,0,0,0-.988-5.471ZM51.122,48.363a4.072,4.072,0,0,1-2.889,1.195H16.895a4.087,4.087,0,1,1,0-8.174H48.036a4.228,4.228,0,0,1,4.277,4.245,4.111,4.111,0,0,1-1.191,2.735M56.9,59.041a3.467,3.467,0,0,1-3.865-4.372,3.408,3.408,0,0,1,2.4-2.382A3.461,3.461,0,1,1,56.9,59.041m1.214-23.077H7.12c-.158,0-.315-.007-.47-.021a5.023,5.023,0,0,1-4.079-6.792L7.479,15.877a4.354,4.354,0,0,1,4.036-2.811l42.05-.156h.023a4.358,4.358,0,0,1,4.06,2.818l5,13.416a5.019,5.019,0,0,1-4.071,6.8c-.155.014-.312.021-.47.021" transform="translate(0 -2.449)" fill="#292929"/>
      <path id="Path_200" data-name="Path 200" d="M55.911,29.958,54.686,24.61a1.219,1.219,0,0,0-1.187-.945H18.569a1.221,1.221,0,0,0-1.195.968l-1.116,5.348a1.215,1.215,0,0,0,1.195,1.46H54.725a1.214,1.214,0,0,0,.952-.453,1.256,1.256,0,0,0,.234-1.031m-37.888.258,1.015-5.325h34l1.195,5.325Z" transform="translate(-3.56 -5.189)" fill="#292929"/>
      <path id="Path_201" data-name="Path 201" d="M52.852,56.09H21.031a.908.908,0,0,1,0-1.817H52.852a.908.908,0,0,1,0,1.817" transform="translate(-4.413 -11.901)" fill="#292929"/>
      <path id="Path_202" data-name="Path 202" d="M52.079,0V25.026H23.241V0h.721a1.139,1.139,0,0,0,.458.921,1.066,1.066,0,0,0,.646.219,1.068,1.068,0,0,0,.646-.219A1.143,1.143,0,0,0,26.168,0h.93a1.153,1.153,0,0,0,.455.921,1.073,1.073,0,0,0,.646.219,1.076,1.076,0,0,0,.65-.219A1.153,1.153,0,0,0,29.3,0h.92a1.148,1.148,0,0,0,.458.921,1.076,1.076,0,0,0,.647.219,1.068,1.068,0,0,0,.646-.219A1.138,1.138,0,0,0,32.432,0h.928a1.153,1.153,0,0,0,.455.921,1.083,1.083,0,0,0,.65.219,1.075,1.075,0,0,0,.646-.219A1.145,1.145,0,0,0,35.566,0h.9a1.256,1.256,0,0,0,.012.164,1.14,1.14,0,0,0,.445.757,1.075,1.075,0,0,0,.646.219,1.069,1.069,0,0,0,.647-.219A1.145,1.145,0,0,0,38.677,0h.93a1.15,1.15,0,0,0,.455.921,1.079,1.079,0,0,0,.649.219,1.076,1.076,0,0,0,.647-.219A1.144,1.144,0,0,0,41.813,0h.906a1.133,1.133,0,0,0,.012.164,1.13,1.13,0,0,0,.445.757,1.066,1.066,0,0,0,1.294,0A1.144,1.144,0,0,0,44.924,0h.931a1.15,1.15,0,0,0,.455.921,1.072,1.072,0,0,0,.646.219,1.073,1.073,0,0,0,.649-.219A1.15,1.15,0,0,0,48.06,0h.893a1.051,1.051,0,0,0,.025.239,1.138,1.138,0,0,0,.433.682,1.073,1.073,0,0,0,.646.219,1.083,1.083,0,0,0,.65-.219A1.153,1.153,0,0,0,51.162,0Z" transform="translate(-5.096 0)" fill="#bfbfbf"/>
      <path id="Path_203" data-name="Path 203" d="M40.2,0V.164A1.134,1.134,0,0,1,40.187,0Z" transform="translate(-8.812 0)" fill="#bfbfbf"/>
      <path id="Path_204" data-name="Path 204" d="M48.2,0V.164A1.133,1.133,0,0,1,48.189,0Z" transform="translate(-10.567 0)" fill="#bfbfbf"/>
      <path id="Path_205" data-name="Path 205" d="M56.2,0V.239A1.1,1.1,0,0,1,56.174,0Z" transform="translate(-12.318 0)" fill="#bfbfbf"/>
      <rect id="Rectangle_90" data-name="Rectangle 90" width="9.424" height="5.133" transform="translate(25.87 7.066)" fill="#fff"/>
      <rect id="Rectangle_91" data-name="Rectangle 91" width="0.963" height="5.133" transform="translate(35.936 7.066)" fill="#fff"/>
      <path id="Path_206" data-name="Path 206" d="M37.507,22.42h0a.374.374,0,0,1-.374.374H33.511a.374.374,0,1,1,0-.748h3.623a.374.374,0,0,1,.374.374" transform="translate(-7.266 -4.834)" fill="#fff"/>
      <path id="Path_207" data-name="Path 207" d="M37.507,20.562h0a.374.374,0,0,1-.374.374H33.511a.374.374,0,1,1,0-.748h3.623a.374.374,0,0,1,.374.374" transform="translate(-7.266 -4.427)" fill="#fff"/>
      <path id="Path_208" data-name="Path 208" d="M37.507,18.73h0a.374.374,0,0,1-.374.374H33.511a.374.374,0,1,1,0-.748h3.623a.374.374,0,0,1,.374.374" transform="translate(-7.266 -4.025)" fill="#fff"/>
      <path id="Path_209" data-name="Path 209" d="M46.029,22.42h0a.374.374,0,0,1-.374.374H41.19a.374.374,0,1,1,0-.748h4.465a.374.374,0,0,1,.374.374" transform="translate(-8.95 -4.834)" fill="#fff"/>
      <path id="Path_210" data-name="Path 210" d="M49.773,22.42h0a.374.374,0,0,1-.374.374h-.735a.374.374,0,1,1,0-.748H49.4a.374.374,0,0,1,.374.374" transform="translate(-10.589 -4.834)" fill="#fff"/>
      <path id="Path_211" data-name="Path 211" d="M48.134,20.563h0a.374.374,0,0,1-.374.374H41.19a.374.374,0,0,1,0-.748h6.571a.374.374,0,0,1,.374.374" transform="translate(-8.95 -4.427)" fill="#fff"/>
      <path id="Path_212" data-name="Path 212" d="M48.134,18.73h0a.374.374,0,0,1-.374.374H41.19a.374.374,0,0,1,0-.748h6.571a.374.374,0,0,1,.374.374" transform="translate(-8.95 -4.025)" fill="#fff"/>
      <rect id="Rectangle_92" data-name="Rectangle 92" width="1.284" height="5.133" transform="translate(37.7 7.066)" fill="#fff"/>
    </g>
  </g>
</svg>
