<svg xmlns="http://www.w3.org/2000/svg" width="76.999" height="61.185" viewBox="0 0 76.999 61.185">
  <g id="Group_143" data-name="Group 143" transform="translate(-1091 -150)">
    <g id="_05" data-name="05" transform="translate(1091 150)">
      <g id="Group_103" data-name="Group 103" transform="translate(0 0)">
        <path id="Path_225" data-name="Path 225" d="M11.484,11.682l3.429,9.3h9.22l3.656-9.3Zm8.152,6.172a1.3,1.3,0,1,1,1.3-1.3,1.3,1.3,0,0,1-1.3,1.3" transform="translate(-0.646 -0.657)" fill="#292929"/>
        <path id="Path_226" data-name="Path 226" d="M19.992,2.726c4.164,0,9.721.918,11.677,3.5a2.811,2.811,0,0,0,.187.223c.165.175,1.612,1.866,1.811,7.3.407,11.05.3,23.808-.871,27.4-.06.185-.121.374-.182.563-.694,2.159-1.411,4.392-3.027,5.986-1.876,1.851-4.894,2.75-9.227,2.75-.374,0-.763-.008-1.155-.021-.032,0-.064,0-.1,0s-.063,0-.1,0c-.393.013-.781.021-1.155.021-4.333,0-7.35-.9-9.225-2.749C7.017,46.112,6.3,43.88,5.606,41.721q-.092-.286-.182-.565c-1.164-3.581-1.277-16.343-.873-27.4.2-5.437,1.646-7.127,1.81-7.3a2.609,2.609,0,0,0,.187-.222c1.958-2.587,7.514-3.505,11.678-3.505.471,0,.748.013.749.013l.133,0,.13,0s.282-.013.753-.013m0-2.726c-.558,0-.883.016-.883.016S18.784,0,18.226,0C15.558,0,7.569.365,4.375,4.586c-.5.533-2.315,2.744-2.547,9.068S1.209,37.006,2.831,42C4.4,46.824,5.972,53.181,17.858,53.181c.4,0,.822-.008,1.251-.023q.644.023,1.251.023c11.885,0,13.46-6.357,15.029-11.183,1.62-4.993,1.235-22.02,1-28.345s-2.046-8.535-2.548-9.068C30.651.365,22.66,0,19.992,0" transform="translate(-0.091 0)" fill="#292929"/>
        <path id="Path_227" data-name="Path 227" d="M19.6,50.448h0A11.912,11.912,0,0,1,7.689,38.536V30.678a.293.293,0,0,1,.294-.294H31.218a.293.293,0,0,1,.294.294v7.859A11.912,11.912,0,0,1,19.6,50.448" transform="translate(-0.432 -1.708)" fill="#292929"/>
        <path id="Path_228" data-name="Path 228" d="M24.959,6.87a5.585,5.585,0,0,1,5.579,5.579v12.69H8.663V12.449A5.584,5.584,0,0,1,14.242,6.87Zm0-.974H14.242a6.553,6.553,0,0,0-6.553,6.553V26.112H31.512V12.449A6.553,6.553,0,0,0,24.959,5.9" transform="translate(-0.432 -0.332)" fill="#292929"/>
        <path id="Path_229" data-name="Path 229" d="M32.429,64.069H5.813c-4.171,0-6.981-3.977-5.334-7.549l1.906-4.135a1.854,1.854,0,0,1,1.684-1.078,2.585,2.585,0,0,0-.038.445c0,3.464,6.856,6.273,15.312,6.273s15.314-2.81,15.314-6.273a2.585,2.585,0,0,0-.038-.445,1.16,1.16,0,0,1,1.052.674l2.092,4.539c1.648,3.572-1.163,7.549-5.334,7.549" transform="translate(0 -2.884)" fill="#292929"/>
      </g>
    </g>
    <g id="_06" data-name="06" transform="translate(1130.209 169.139)">
      <g id="Group_102" data-name="Group 102" transform="translate(0 0)">
        <path id="Path_230" data-name="Path 230" d="M20.369,21.1a2.706,2.706,0,0,1-2.2.915,2.593,2.593,0,0,1-2.218-1.755c-.535-1.309-1.1-2.609-1.6-3.93a.765.765,0,0,0-.868-.569c-1.1.03-2.2-.015-3.305.022-.469.016-.761-.112-.858-.579-.12-.571-.479-.717-1.029-.685-.759.044-1.524-.024-2.282.023a.809.809,0,0,1-.911-.628Q2.644,7.917.139,1.937c-.238-.567-.224-.8.479-.75.784.051,1.574,0,2.361.015.4.006.55-.114.337-.5C2.946.039,3.322,0,3.861,0q9.6.013,19.207.008c2.466,0,4.933-.023,7.4.05a7.778,7.778,0,0,1,6.979,5.472,7.887,7.887,0,0,1-2.679,8.533,7.113,7.113,0,0,1-2.789,1.393c-.615.127-.638.4-.514.916,1.187,4.994,2.348,9.995,3.526,14.991.727,3.085,1.47,6.167,2.2,9.25.227.954-.108,1.412-1.1,1.417-2.912.015-5.826.031-8.738-.006A3.563,3.563,0,0,1,23.8,39.776c-.769-1.916.479-3.9,2.691-4.417.2-.047.679.128.554-.3-.133-.458-.152-1.223-.744-1.21-.526.011-.552-.247-.675-.533Q23.2,27.679,20.784,22.044c-.123-.287-.253-.573-.415-.941M18.007,1.316c-4.039,0-8.078.009-12.117-.01-.618,0-.78.1-.509.733,1.034,2.4,2.046,4.817,3.012,7.249a1.091,1.091,0,0,0,1.21.8c6.215-.024,12.431-.01,18.646-.016A6.6,6.6,0,0,0,34.9,4.1a.852.852,0,0,0-.306-.749,6.684,6.684,0,0,0-5.1-2.037H18.007M35.991,5.849a2.891,2.891,0,0,0-.151.27A7.826,7.826,0,0,1,27.924,11.4q-8.966,0-17.932-.009c-.574,0-.774.1-.478.683a13.7,13.7,0,0,1,.694,1.667.827.827,0,0,0,.919.633q9.36-.029,18.719-.008a6.671,6.671,0,0,0,3.5-.987,6.3,6.3,0,0,0,2.642-7.534M3.165,2.563c-1.31-.005-1.337.008-.858,1.059C3.565,6.382,4.673,9.2,5.842,12c.479,1.149.479,1.121,1.763,1.13.649,0,.763-.167.513-.768C6.905,9.443,5.61,6.554,4.545,3.573c-.258-.724-.577-1.313-1.38-1.01M17.056,15.825c-.362,0-.6.008-.834,0-.389-.017-.533.1-.361.506.5,1.181.966,2.379,1.481,3.554a1.039,1.039,0,0,0,1.407.649,1.073,1.073,0,0,0,.573-1.5c-.276-.735-.652-1.436-.89-2.181-.247-.775-.588-1.287-1.377-1.028" transform="translate(0 0)" fill="#292929"/>
        <path id="Path_231" data-name="Path 231" d="M58.445,6.154A2.446,2.446,0,0,0,55.979,8.5a2.4,2.4,0,0,0,2.389,2.4A2.367,2.367,0,0,0,60.78,8.538a2.4,2.4,0,0,0-2.335-2.384m-.071,3.471a1.11,1.11,0,0,1-1.1-1.111A1.129,1.129,0,0,1,58.41,7.431a1.11,1.11,0,0,1,1.078,1.1,1.094,1.094,0,0,1-1.114,1.093" transform="translate(-29.692 -3.264)" fill="#292929"/>
      </g>
    </g>
  </g>
</svg>
