<svg id="_02" data-name="02" xmlns="http://www.w3.org/2000/svg" width="66.215" height="61.185" viewBox="0 0 66.215 61.185">
  <g id="Group_104" data-name="Group 104">
    <path id="Path_190" data-name="Path 190" d="M56.528,44.247H3.976A3.98,3.98,0,0,1,0,40.272V3.976A3.98,3.98,0,0,1,3.976,0H56.528A3.98,3.98,0,0,1,60.5,3.976v36.3a3.98,3.98,0,0,1-3.976,3.976M3.976,1.892A2.086,2.086,0,0,0,1.892,3.976v36.3a2.087,2.087,0,0,0,2.084,2.084H56.528a2.087,2.087,0,0,0,2.084-2.084V3.976a2.086,2.086,0,0,0-2.084-2.084Z" fill="#292929"/>
    <path id="Path_191" data-name="Path 191" d="M56.539,41.731H12.489a1.776,1.776,0,0,1-1.774-1.774V12.508a1.775,1.775,0,0,1,1.774-1.773H56.539a1.775,1.775,0,0,1,1.774,1.773v27.45a1.775,1.775,0,0,1-1.774,1.774M12.489,11.939a.57.57,0,0,0-.569.569v27.45a.57.57,0,0,0,.569.57H56.539a.571.571,0,0,0,.57-.57V12.508a.57.57,0,0,0-.57-.569Z" transform="translate(-4.191 -4.199)" fill="#292929"/>
    <path id="Path_192" data-name="Path 192" d="M24.527,71.3v5.379H21.4V89.075H55.846V76.691H52.617V71.3Z" transform="translate(-8.37 -27.89)" fill="#292929"/>
    <rect id="Rectangle_82" data-name="Rectangle 82" width="1.682" height="16.039" transform="translate(61.451 14.485)" fill="#292929"/>
    <rect id="Rectangle_83" data-name="Rectangle 83" width="1.682" height="5.317" transform="translate(60.104 19.802)" fill="#292929"/>
    <rect id="Rectangle_84" data-name="Rectangle 84" width="1.682" height="16.039" transform="translate(64.533 14.485)" fill="#292929"/>
  </g>
</svg>
