<svg xmlns="http://www.w3.org/2000/svg" width="51.257" height="61.184" viewBox="0 0 51.257 61.184">
  <g id="_04" data-name="04" transform="translate(0 0)">
    <g id="Group_59" data-name="Group 59" transform="translate(0 0)">
      <path id="Path_219" data-name="Path 219" d="M51.053,17.839,45.614,0H4.674L.276,17.383A9,9,0,0,0,0,19.888L1.04,55.546a4.1,4.1,0,0,0,4.1,3.976H45.706a4.1,4.1,0,0,0,4.1-3.933l1.442-36.164a4.958,4.958,0,0,0-.2-1.585M45.043,38.7,44.036,51.006a2.474,2.474,0,0,1-2.47,2.27h-32a2.474,2.474,0,0,1-2.477-2.384L6.658,38.7V37.249H45.043ZM49.49,18.618A4.764,4.764,0,0,1,44.736,23.1H6.487A4.758,4.758,0,0,1,1.74,18.618H1.733L6,1.713H44.35l5.147,16.9Z" transform="translate(0 0)" fill="#292929"/>
      <path id="Path_220" data-name="Path 220" d="M46.527,57.894l-.9,7.867a2.057,2.057,0,0,1-2.215,1.451H14.71c-1.2,0-2.177-.671-2.222-1.524l-.39-7.794Z" transform="translate(-3.461 -16.565)" fill="#292929"/>
      <path id="Path_221" data-name="Path 221" d="M45.516,8.365H11.154L12.247,2.4H44.325Z" transform="translate(-3.192 -0.685)" fill="#292929"/>
      <path id="Path_222" data-name="Path 222" d="M52.265,24.665a1.841,1.841,0,1,1-1.841-1.841,1.841,1.841,0,0,1,1.841,1.841" transform="translate(-13.902 -6.531)" fill="#292929"/>
      <path id="Path_223" data-name="Path 223" d="M60.822,24.665a1.841,1.841,0,1,1-1.841-1.841,1.841,1.841,0,0,1,1.841,1.841" transform="translate(-16.35 -6.531)" fill="#292929"/>
      <rect id="Rectangle_96" data-name="Rectangle 96" width="19.983" height="10.603" transform="translate(15.915 45.487)" fill="#fff"/>
      <path id="Path_224" data-name="Path 224" d="M17.676,52.04V76.075l1.354-.8,1.214.8,1.334-.8,1.365.8,1.374-.762,1.294.762,1.334-.8,1.294.8,1.294-.8,1.364.8,1.454-.842,1.214.842,1.414-.842,1.174.842,1.6-.8,1.024.8,1.4-.8,1.334.8,1.334-.883,1.294.883.16-24.035ZM23.3,69.715H22.17v-.3c.031-1.745.051-3.5.071-5.246.02-.993.01-1.976.03-2.969a.248.248,0,0,1,.131-.181c.291-.01.592-.01.9-.01Zm1.374.01c-.311,0-.221-.261-.211-.441,0-1.5.011-3,.011-4.494V61.028h.411V69.3c-.01.161.09.431-.211.421m1.786,0c-.331.01-.211-.3-.211-.471q-.015-3.988-.01-7.965v-.261h.451v8.216c0,.191.09.481-.231.481m3.481,0c-.662,0-1.314.01-1.956,0-.061-.01-.111-.111-.161-.171-.01-.02,0-.06,0-.08V61.2a1.164,1.164,0,0,1,.01-.171h2.107Zm1.545-.331c0,.111-.04.281-.121.321-.211.111-.331,0-.331-.261.01-2.668.01-5.327.02-8v-.411c.361-.1.431-.06.431.271q.015,4.033,0,8.075m.842.111a.921.921,0,0,1-.211.241.838.838,0,0,1-.2-.221.645.645,0,0,1-.02-.281c0-2.658-.01-5.327,0-7.985,0-.291.08-.331.451-.191v8.155a.66.66,0,0,1-.02.281m1.916-6.751v6.972H33.2v-.311c0-2.708,0-5.427-.01-8.135,0-.221.08-.281.281-.281s.411-.02.612.01c.071.01.151.151.161.221.01.512,0,1.023,0,1.525m.913,6.962c-.341.07-.381-.09-.381-.321V61.259c0-.151,0-.261.191-.271s.191.14.191.271Zm.953-.271a.379.379,0,0,1-.091.281c-.1.091-.271-.02-.281-.171a.482.482,0,0,1,0-.12V61.279a.391.391,0,0,1,.06-.251.234.234,0,0,1,.231-.01.286.286,0,0,1,.081.211Zm3.7.271H37.227V61.028h2.588Z" transform="translate(-5.058 -14.89)" fill="#bfbfbf"/>
    </g>
  </g>
</svg>
