<svg xmlns="http://www.w3.org/2000/svg" width="22.837" height="60.536" viewBox="0 0 22.837 60.536">
  <g id="Group_141" data-name="Group 141" transform="translate(-460.473 -150)">
    <path id="Path_197" data-name="Path 197" d="M73.627,58.857h6.345V84.725H73.627Zm5.539,7.869V65.544H74.313c.023.444.042.8.062,1.183Z" transform="translate(395.083 123.714)" fill="#292929"/>
    <path id="Path_198" data-name="Path 198" d="M58.744,16.023q0-7.145,0-14.289c0-1.5.228-1.731,1.688-1.732q9.7,0,19.393,0c1.512,0,1.751.243,1.751,1.8q0,14.289,0,28.579c0,1.524-.282,1.815-1.756,1.816q-9.64.006-19.279,0c-1.519,0-1.8-.273-1.8-1.77q-.006-7.2,0-14.4m1.318.03q0,6.52,0,13.041c0,1.386.38,1.779,1.729,1.781q8.392.011,16.784,0c1.263,0,1.682-.431,1.682-1.722q.01-13.042,0-26.084c0-1.381-.378-1.773-1.738-1.776q-8.336-.014-16.671,0c-1.456,0-1.787.352-1.789,1.829q-.009,6.464,0,12.928" transform="translate(401.73 150)" fill="#292929"/>
    <rect id="Rectangle_86" data-name="Rectangle 86" width="1.67" height="25.866" transform="translate(475.524 182.573)" fill="#292929"/>
    <rect id="Rectangle_87" data-name="Rectangle 87" width="1.65" height="25.881" transform="translate(466.564 182.588)" fill="#292929"/>
    <rect id="Rectangle_88" data-name="Rectangle 88" width="21.067" height="1.594" transform="translate(461.356 208.942)" fill="#292929"/>
  </g>
</svg>
