<svg xmlns="http://www.w3.org/2000/svg" width="71.963" height="29.114" viewBox="0 0 71.963 29.114">
  <g id="_08" data-name="08" transform="translate(0 0)">
    <g id="Group_100" data-name="Group 100" transform="translate(0 0)">
      <path id="Path_240" data-name="Path 240" d="M.047,34.062v-9.29H71.934v9.29a1.778,1.778,0,0,1-1.778,1.778H1.824A1.778,1.778,0,0,1,.047,34.062m24.382-4.592H47.486V27.41H24.429v2.061Zm11.552,4.7A1.418,1.418,0,0,0,37.4,32.8a1.446,1.446,0,0,0-1.421-1.452A1.421,1.421,0,0,0,34.569,32.8a1.405,1.405,0,0,0,1.412,1.374" transform="translate(-0.013 -6.727)" fill="#292929"/>
      <path id="Path_241" data-name="Path 241" d="M0,17.362c.525-1.6,1.035-3.163,1.546-4.721,1.311-4,2.63-7.995,3.92-12A.77.77,0,0,1,6.348,0Q35.963.022,65.578,0a.851.851,0,0,1,.985.7C68.3,6.07,70.069,11.427,71.827,16.79c.057.174.086.358.136.573Zm3.99-4.344h64c-.076-.261-.13-.462-.195-.66C66.7,8.983,65.579,5.614,64.507,2.23a.931.931,0,0,0-1.069-.787q-27.385.031-54.771.017H7.789L3.99,13.018" transform="translate(0 0)" fill="#292929"/>
    </g>
  </g>
</svg>
