<svg xmlns="http://www.w3.org/2000/svg" width="62.417" height="61.185" viewBox="0 0 62.417 61.185">
  <g id="_07" data-name="07" transform="translate(0 0)">
    <g id="Group_101" data-name="Group 101" transform="translate(0 0)">
      <path id="Path_232" data-name="Path 232" d="M61.884,23.031c-1.266-1.873-2.5-3.768-3.739-5.663-1.975-3.043-3.958-6.08-5.911-9.145a4.4,4.4,0,0,0-4.353-2.378c-.856.073-1.719-.022-2.575.029-.578.029-.724-.19-.71-.732.037-1.317.015-2.634.015-3.951,0-1.141-.037-1.178-1.163-1.178H31.134C26.95.015,22.765.029,18.58,0c-.622-.007-.768.168-.746.761.044,1.5,0,3.007.022,4.507.007.424-.124.5-.534.549a37.258,37.258,0,0,1-4.236.146A2.38,2.38,0,0,0,11.4,6.68a9.194,9.194,0,0,0-1.236,1.741Q5.349,15.784.575,23.17a2.67,2.67,0,0,0-.549,1.9c.285,1.763.607,3.519.907,5.282q.472,2.831.936,5.655c.285,1.741.571,3.475.841,5.216.3,1.888.578,3.775.9,5.655a8.053,8.053,0,0,1-.022,4.229,2.286,2.286,0,0,0-.168,1.536c.556,1.58,1.1,3.175,1.675,4.755a2.831,2.831,0,0,0,1.961,1.814,22.574,22.574,0,0,0,3.512.512c1.624.161,3.263.322,4.88.541,2.012.263,4.046.344,6.065.578a60.275,60.275,0,0,0,6.292.3c3.848.015,7.7.11,11.552-.08,2.839-.139,5.648-.461,8.472-.666,2.37-.176,4.7-.629,7.038-1.017a2.969,2.969,0,0,0,2.509-1.895c.424-1.207.885-2.407,1.31-3.607a4.123,4.123,0,0,0,.241-2.473,6.461,6.461,0,0,1-.358-3.146c.212-.863.358-1.749.49-2.626.271-1.822.593-3.629.856-5.45.337-2.414.871-4.8,1.229-7.214.329-2.2.71-4.39,1.1-6.584a4.288,4.288,0,0,0-.366-3.358m-43.3-21.4A.734.734,0,0,1,19.319.9H43.126a.728.728,0,0,1,.724.732V8.406a.721.721,0,0,1-.724.724H19.319a.728.728,0,0,1-.732-.724ZM8.155,13.681a44.21,44.21,0,0,1,3.68-5.429C12.727,7.1,14.161,7.1,15.478,6.994c.717-.066,1.449-.022,2.166-.029.124-.029.19.015.176.146v.754c.117.644.059,1.1-.8,1.017-.388-.044-.936-.066-.944.571,0,.68.549.527.944.527q13.246,0,26.484-.007c.673,0,1.346,0,2.012.015a.718.718,0,0,0,.746-.366c.146-.3.161-.593-.315-.6H45.62C44.538,9,44.538,9,44.589,7.865V7.111c-.015-.124.044-.176.168-.154,1.149.007,2.29.073,3.431-.007a2.8,2.8,0,0,1,2.641,1.258,12.755,12.755,0,0,1,1.7,2.561c.615.966,1.214,1.939,1.829,2.912-.3.241-.571.146-.827.146q-20.961.011-41.914-.022c-.424,0-.278,0-1.288-.022-.71-.015-1.332-.007-2.063.015H8.1c.022-.044.037-.08.059-.117m53.122,12.13c-.483,3.2-1.039,6.4-1.573,9.6-.585,3.5-1.2,7.016-1.741,10.535-.146.944-.322,1.88-.483,2.824a1.775,1.775,0,0,0,0,.958c.863,1.961.344,3.812-.38,5.663-.2.519-.417,1.039-.593,1.573a2.179,2.179,0,0,1-1.983,1.478c-1.91.315-3.812.658-5.721.922-1.317.183-2.648.271-3.973.373-6.358.483-12.737.358-19.11.3-1.961-.015-3.921-.337-5.889-.432-1.412-.066-2.809-.234-4.214-.358-1.588-.146-3.168-.373-4.748-.563-1-.124-2-.271-3.007-.388a2.04,2.04,0,0,1-1.814-1.368c-.512-1.375-.988-2.773-1.507-4.148a2,2,0,0,1-.1-.936c.117-.571.307-1.054.424-1.544a7.54,7.54,0,0,0-.1-3.058q-.494-3.193-1.039-6.387c-.417-2.487-.871-4.968-1.28-7.462C2.1,31.32,1.8,29.235,1.46,27.165c-.08-.549-.19-1.09-.293-1.631a2.332,2.332,0,0,1,.278-1.749q2.711-4.159,5.4-8.326a1.24,1.24,0,0,1,1.207-.571q11.863.022,23.726.007c2.451.037,4.785.051,7.133.051.8,0,1.588.015,2.378,0,4.507-.051,9.028-.11,13.535-.117a.827.827,0,0,1,.776.439q2.733,4.225,5.472,8.428a2.918,2.918,0,0,1,.2,2.114" transform="translate(0 0)" fill="#292929"/>
      <path id="Path_233" data-name="Path 233" d="M58.011,35.429H8.991c-.929,0-1.184.282-1.089,1.028.181,1.449.325,2.9.462,4.358.13,1.377.216,2.759.346,4.138.2,2.063.432,4.125.62,6.189.134,1.485.134,2.986.345,4.458.362,2.531.452,5.084.763,7.619.074.61.311.747.865.752,3.082.019,7.773.091,10.855.091a1.576,1.576,0,0,1,.222.015V62.932c-.124.01-1.886.012-2.075.012-1.1,0-2.2,0-3.3.031-.356.008-.585-.059-.724-.43-.689-1.847-1.388-3.693-2.114-5.526-.239-.6-.179-.8.547-.8,5.418.027,10.84.016,16.26.016l10.062,0c.669.021,1.307.005,1.964.007l.754.005c.154-.008.211.018.29.01,2.46-.029,4.829.04,7.29.016.775-.008,1.55,0,2.359,0a3.929,3.929,0,0,1-.48,1.287c-.775,1.617-1.58,3.22-2.338,4.845a.751.751,0,0,1-.8.552c-1.728-.032-5.069-.027-6.8-.006V64.09a.182.182,0,0,1,.035,0c3.4-.031,8.418-.083,11.821-.127.269,0,.536,0,.8.01.4.012.567-.14.579-.569.018-.689.1-1.378.169-2.068.206-2.062.432-4.122.625-6.187.129-1.377.274-2.752.367-4.134.132-1.962.406-3.913.594-5.87.135-1.4.214-2.814.345-4.22.137-1.48.348-2.956.446-4.437.071-1.052.01-1.056-1.053-1.056M18.417,39.075c0-.162,0-.327,0-.489V36.374h30.6V40.8h-30.6ZM51.129,41.9c-.26,1.64-.579,3.213-.731,4.8-.064.664-.263.77-.849.77q-14.037-.024-28.078-.008c-1.26,0-2.521.01-3.78.057-.572.022-.757-.138-.82-.749-.17-1.619-.464-3.225-.712-4.871Zm.339,7.437c-.638,1.7-1.269,3.406-1.838,5.132a.966.966,0,0,1-1.105.756c-5.017-.018-10.034-.01-15.053-.01v.016q-7.606,0-15.212.012a.637.637,0,0,1-.709-.456C16.9,52.9,16.264,51,15.6,49.123c-.163-.459-.176-.639.42-.637,9.1.02,18.193-.036,27.288.059,2.534.026,5.063-.111,7.595-.042.771.021.8.222.568.831M26.683,62.967a2.139,2.139,0,0,1-.255-.01v.995h.032c3.112.013,9.447.012,12.559,0v-1c-3.04-.032-9.3-.048-12.336.01" transform="translate(-2.116 -9.509)" fill="#292929"/>
      <path id="Path_234" data-name="Path 234" d="M31.656,27.753c-.372,0-.746.017-1.116-.005a.58.58,0,0,1-.615-.512.524.524,0,0,1,.561-.551c.77-.036,1.542-.027,2.312-.014.368.006.489.247.479.593a.451.451,0,0,1-.5.486c-.372.011-.744,0-1.116,0" transform="translate(-8.031 -7.155)" fill="#292929"/>
      <path id="Path_235" data-name="Path 235" d="M41.581,27.758c-.375,0-.751.01-1.126,0a.565.565,0,0,1-.62-.511.517.517,0,0,1,.555-.562c.777-.026,1.555-.02,2.332,0a.536.536,0,0,1-.015,1.066c-.375.018-.751,0-1.126,0v.007" transform="translate(-10.691 -7.157)" fill="#292929"/>
      <path id="Path_236" data-name="Path 236" d="M51.3,27.755c-.348,0-.7,0-1.043,0-.3,0-.528-.12-.555-.452a.525.525,0,0,1,.506-.61c.773-.04,1.552-.039,2.326,0a.507.507,0,0,1,.518.591.54.54,0,0,1-.628.481c-.375-.007-.749,0-1.124,0Z" transform="translate(-13.338 -7.156)" fill="#292929"/>
      <path id="Path_237" data-name="Path 237" d="M32.027,75.977H26.491a.649.649,0,0,1-.643-.736l.791-5.845a.649.649,0,0,1,.643-.562h3.989a.648.648,0,0,1,.643.566l.756,5.845a.649.649,0,0,1-.643.732" transform="translate(-6.936 -18.475)" fill="#292929"/>
      <path id="Path_238" data-name="Path 238" d="M55,76.091H49.463a.649.649,0,0,1-.643-.736l.791-5.846a.649.649,0,0,1,.643-.562h3.989a.65.65,0,0,1,.644.566l.756,5.845a.649.649,0,0,1-.644.732" transform="translate(-13.101 -18.505)" fill="#292929"/>
      <path id="Path_239" data-name="Path 239" d="M26.548,2.815v5.57a.648.648,0,0,0,.649.648h22.25a.648.648,0,0,0,.648-.648V2.815a.649.649,0,0,0-.648-.648H27.2a.649.649,0,0,0-.649.648M39.416,4.491a.268.268,0,0,1-.307.165c-.106-.006-.219,0-.325,0-.177.8-.755,1.05-1.487,1.121.023.023.035.047.053.065q.752.937,1.5,1.882a.38.38,0,0,1,.053.106.3.3,0,0,0-.018.024c-.2,0-.4.006-.6,0a.122.122,0,0,1-.077-.048c-.4-.466-.791-.938-1.186-1.4-.141-.165-.277-.331-.418-.5a.162.162,0,0,1-.036-.094c-.006-.112,0-.224,0-.336h.195a2.081,2.081,0,0,0,.868-.136.73.73,0,0,0,.489-.6c.006-.024.006-.053.012-.089H36.425c.094-.142.182-.271.271-.4.012-.018.053-.018.077-.018h1.322c-.048-.065-.077-.118-.119-.165a.916.916,0,0,0-.607-.277c-.277-.023-.56-.018-.844-.029h-.083c.094-.135.177-.266.266-.4.006-.012.035-.018.047-.018.932,0,1.858-.006,2.785-.006a.106.106,0,0,1,.036.006c-.089.135-.171.265-.26.4a.107.107,0,0,1-.065.018h-.7c.07.154.141.307.224.466h.8a1.874,1.874,0,0,0-.165.266" transform="translate(-7.125 -0.582)" fill="#292929"/>
    </g>
  </g>
</svg>
