<svg xmlns="http://www.w3.org/2000/svg" xmlns:xlink="http://www.w3.org/1999/xlink" width="82.266" height="82.266" viewBox="0 0 82.266 82.266">
  <defs>
    <linearGradient id="linear-gradient" x1="0.5" x2="0.5" y2="1" gradientUnits="objectBoundingBox">
      <stop offset="0" stop-color="#1a1818"/>
      <stop offset="1" stop-color="#666464"/>
    </linearGradient>
    <clipPath id="clip-path">
      <rect id="Rectangle_270" data-name="Rectangle 270" width="82.266" height="82.266" fill="url(#linear-gradient)"/>
    </clipPath>
  </defs>
  <g id="Group_148" data-name="Group 148" transform="translate(0 0)">
    <g id="Group_147" data-name="Group 147" transform="translate(0 0)" clip-path="url(#clip-path)">
      <path id="Path_345" data-name="Path 345" d="M9.61,64V68.12H0V32.491H9.6v2.9c.269-.161.478-.287.685-.413A29.284,29.284,0,0,1,17.5,31.711a10.825,10.825,0,0,1,5.9-.276,9.14,9.14,0,0,1,2.362,1.059,13.964,13.964,0,0,0,4.9,2.228,30.7,30.7,0,0,0,4.074.339c1.686.064,3.381-.054,5.061.074a11.7,11.7,0,0,1,9.82,5.974,3.778,3.778,0,0,1,.6,2.685c-.057.284-.157.558-.252.884.327,0,.631.01.934,0a28.456,28.456,0,0,0,6.3-.643,6.788,6.788,0,0,0,1.774-.708c2.734-1.658,5.432-3.378,8.163-5.042a39.731,39.731,0,0,1,6.748-3.611,9.2,9.2,0,0,1,3.663-.768,3.642,3.642,0,0,1,2.3.825,11.184,11.184,0,0,1,1.6,1.629,3.868,3.868,0,0,1-.739,5.481c-1.123.954-2.276,1.87-3.429,2.788Q69.556,50.768,61.829,56.9c-.861.684-1.738,1.344-2.6,2.019a10.175,10.175,0,0,1-5.124,1.91c-1.764.23-3.524.5-5.282.765q-4.367.661-8.729,1.337c-1.441.221-2.878.5-4.327.638-2.08.192-4.168.366-6.254.384C23,64,16.489,63.977,9.978,63.984c-.1,0-.209.01-.368.019m0-2.7c.183,0,.314,0,.445,0l4.9-.019c4.876-.02,9.753-.02,14.629-.073A42.9,42.9,0,0,0,34,60.932c1.912-.218,3.815-.538,5.72-.825,2.606-.39,5.209-.8,7.817-1.181,2.33-.339,4.66-.684,7-.958a6.431,6.431,0,0,0,3.341-1.326q3.909-3.087,7.837-6.146,5.273-4.114,10.553-8.218c.939-.732,1.889-1.451,2.83-2.183a1.232,1.232,0,0,0,.512-1.3,2.351,2.351,0,0,0-2.532-1.809,4.729,4.729,0,0,0-.67.122,18.805,18.805,0,0,0-4.846,2.1c-3.583,2.168-7.138,4.383-10.7,6.585a10.5,10.5,0,0,1-2.994,1.227,36.986,36.986,0,0,1-8.732.865c-6.511.049-13.022.012-19.533,0a5.507,5.507,0,0,0-2.536.489,2.072,2.072,0,0,0-1.23,1.624c-.039.291-.07.585-.124.874a1.227,1.227,0,0,1-1.389,1.044,1.206,1.206,0,0,1-1.2-1.211,4.716,4.716,0,0,1,1.425-3.745,6.687,6.687,0,0,1,4.574-1.777c1.926-.086,3.857-.074,5.785-.08,2.946-.012,5.894.007,8.841,0a8.605,8.605,0,0,0,3.223-.573c.672-.272.835-.592.636-1.287a3.528,3.528,0,0,0-.364-.886,8.4,8.4,0,0,0-6.475-4.236c-1.846-.191-3.719-.109-5.58-.131a21.784,21.784,0,0,1-5.572-.606A16.156,16.156,0,0,1,24.551,35a5.479,5.479,0,0,0-2.58-1.025,11.582,11.582,0,0,0-5.263.849,31.661,31.661,0,0,0-6.571,3.418A1.05,1.05,0,0,0,9.6,39.268q.024,10.768.01,21.534v.5M2.747,50.316h0c0,.241,0,.483,0,.723Q2.74,58.05,2.723,65.06c0,.3.121.359.381.356,1.1-.013,2.2-.029,3.3-.012.378.006.467-.125.465-.486Q6.847,53.75,6.853,42.581c0-2.3-.012-4.607,0-6.911,0-.366-.127-.446-.462-.441-.979.016-1.956,0-2.935,0-.793,0-.708-.115-.71.7q-.009,7.192,0,14.383" transform="translate(0 14.146)" fill="url(#linear-gradient)"/>
      <path id="Path_346" data-name="Path 346" d="M70.987,34.286c.778,0,1.566,0,2.355,0a1.85,1.85,0,0,1,1.281.372,1.046,1.046,0,0,1,.314,1.355,3.86,3.86,0,0,1-.365.621Q72.443,39.6,70.3,42.567a3.84,3.84,0,0,0-.368.525,1.435,1.435,0,0,1-1.454.793q-6.974-.007-13.947,0H11.729c-.39,0-.78-.026-1.166,0a2.022,2.022,0,0,1-1.867-.96Q6.732,40.18,4.758,37.446c-.22-.3-.457-.6-.65-.918a1.367,1.367,0,0,1,1.163-2.221c.721-.038,1.446-.015,2.17-.019h.417c.108-.925.2-1.815.317-2.7a31.01,31.01,0,0,1,3.1-10.068,31.386,31.386,0,0,1,14.6-14.286,29.6,29.6,0,0,1,8.469-2.645c1.124-.175,2.257-.284,3.39-.388.313-.029.384-.143.359-.422a4.425,4.425,0,0,1,0-.721c.022-.26-.1-.323-.329-.32-.817,0-1.635.022-2.451-.01a1.332,1.332,0,0,1-1.293-1.719,1.159,1.159,0,0,1,.883-.9,2.942,2.942,0,0,1,.753-.1q3.8-.011,7.6,0A1.421,1.421,0,0,1,44.79.916a1.26,1.26,0,0,1-1.011,1.745,20.318,20.318,0,0,1-2.526.065c-.388-.006-.5.1-.49.494.028.989.01.976,1.015,1.043a30.511,30.511,0,0,1,9.639,2.28,31.708,31.708,0,0,1,15.388,13.55,29.989,29.989,0,0,1,3.611,10.02c.227,1.369.378,2.75.57,4.171m-2.7-.01c-.762-9.869-5.141-17.615-13.453-22.964a28.626,28.626,0,0,0-32.44,1.171A28.9,28.9,0,0,0,10.577,34.275ZM7.85,37c.079.134.115.2.16.268.807,1.166,1.627,2.324,2.416,3.5a.78.78,0,0,0,.752.382q28.25-.011,56.5-.007a.994.994,0,0,0,.279-.006.546.546,0,0,0,.3-.154q1.283-1.819,2.547-3.656A1.791,1.791,0,0,0,70.932,37Z" transform="translate(1.738 0)" fill="url(#linear-gradient)"/>
      <path id="Path_347" data-name="Path 347" d="M14.152,21.661a1.377,1.377,0,0,1-1.281-2.1A21.584,21.584,0,0,1,14.43,17.23,26.093,26.093,0,0,1,31.445,6.95,29.946,29.946,0,0,1,35.4,6.639,1.293,1.293,0,0,1,36.653,8.45a1.19,1.19,0,0,1-1.079.833c-.759.071-1.524.074-2.285.141A23.413,23.413,0,0,0,16.15,19.519c-.33.486-.618,1-.939,1.494a1.338,1.338,0,0,1-1.059.649" transform="translate(5.754 3.015)" fill="url(#linear-gradient)"/>
    </g>
  </g>
</svg>
