<svg id="Group_152" data-name="Group 152" xmlns="http://www.w3.org/2000/svg" xmlns:xlink="http://www.w3.org/1999/xlink" width="100.701" height="82.266" viewBox="0 0 100.701 82.266">
  <defs>
    <linearGradient id="linear-gradient" x1="0.5" x2="0.5" y2="1" gradientUnits="objectBoundingBox">
      <stop offset="0" stop-color="#1a1818"/>
      <stop offset="1" stop-color="#666464"/>
    </linearGradient>
    <clipPath id="clip-path">
      <rect id="Rectangle_272" data-name="Rectangle 272" width="100.701" height="82.266" fill="url(#linear-gradient)"/>
    </clipPath>
  </defs>
  <g id="Group_151" data-name="Group 151" transform="translate(0 0)" clip-path="url(#clip-path)">
    <path id="Path_357" data-name="Path 357" d="M11.682,33.6c-.021.21-.042.321-.042.43q.023,10.156.047,20.314a.532.532,0,0,1,0,.1c-.156.675.123,1.01.743,1.349a4.531,4.531,0,0,1,1.5,6.818c-.183.242-.245.433-.018.687a5.82,5.82,0,0,1,1.328,3.521q.456,5.19.9,10.382a12.74,12.74,0,0,1,.106,2.346,3.005,3.005,0,0,1-2.917,2.69c-2.079.041-4.163.05-6.244-.006A3.1,3.1,0,0,1,4.019,78.8c.215-2.678.495-5.351.747-8.026.145-1.532.287-3.066.439-4.6a4.94,4.94,0,0,1,1.24-2.883c.178-.2.24-.349.054-.59a4.655,4.655,0,0,1,2.16-7.285v-.469q0-11.066.011-22.135A.643.643,0,0,0,8.2,32.1c-1.438-.59-2.869-1.2-4.287-1.836a6.312,6.312,0,0,1-3.9-5.68A6.013,6.013,0,0,1,3.557,18.83C6.821,17.39,10.1,16,13.383,14.591Q28.95,7.922,44.518,1.258a14.189,14.189,0,0,1,11.591-.041q10.655,4.551,21.3,9.119,9.5,4.07,18.986,8.155a8.669,8.669,0,0,1,2.141,1.267,6.2,6.2,0,0,1-1.125,10.189c-1.98,1.012-4.064,1.812-6.108,2.692Q86.32,34.785,81.325,36.9a.8.8,0,0,0-.55.886q.036,5.458,0,10.918a12.255,12.255,0,0,1-4.13,8.887,25.611,25.611,0,0,1-8.171,5.171,45.024,45.024,0,0,1-12.342,3.067A48.261,48.261,0,0,1,46.029,66a42.924,42.924,0,0,1-16.683-4.619,20.712,20.712,0,0,1-6.91-5.65,11.315,11.315,0,0,1-2.47-6.809c-.035-3.8-.02-7.606-.041-11.409a.582.582,0,0,0-.248-.449c-2.633-1.155-5.277-2.29-8-3.462m3.229-1.977c0,.035,0,.07-.006.1.422.2.838.422,1.267.606q7.917,3.4,15.836,6.79c4.663,2,9.315,4.018,14,5.971a10.949,10.949,0,0,0,8.3.162c1.744-.656,3.445-1.428,5.16-2.163q15.3-6.549,30.593-13.109c1.91-.818,3.838-1.6,5.72-2.48a3.3,3.3,0,0,0,1.686-4.386,3.81,3.81,0,0,0-2.275-1.972Q75.3,12.625,55.432,4.1a12.246,12.246,0,0,0-10.1-.012Q27.322,11.833,9.292,19.544c-1.518.65-3.041,1.293-4.534,2A2.959,2.959,0,0,0,3.043,24.07a3.237,3.237,0,0,0,2.1,3.527c1.4.643,2.825,1.217,4.244,1.812a.879.879,0,0,0,.472.044q6.846-1.18,13.691-2.376,6.629-1.15,13.256-2.3c1.742-.3,3.486-.593,5.224-.912a.86.86,0,0,0,.584-.345,5.357,5.357,0,0,1,3.36-2.967,12.563,12.563,0,0,1,7.441-.419A7.388,7.388,0,0,1,57.3,22.2a3.084,3.084,0,0,1,.242,4.2,6.334,6.334,0,0,1-1.83,1.521,11.123,11.123,0,0,1-6.674,1.145,8.829,8.829,0,0,1-5.612-2.294.516.516,0,0,0-.4-.092q-6.871,1.184-13.74,2.386-5.805,1.012-11.61,2.02c-.926.162-1.845.355-2.768.535m62.871,6.836c-.251.094-.431.154-.608.23-6.812,2.92-13.64,5.8-20.426,8.779a14.771,14.771,0,0,1-12.406.15C38.1,44.892,31.835,42.24,25.579,39.56c-.867-.372-1.736-.737-2.675-1.136,0,1.054-.024,2.017.006,2.981a16.151,16.151,0,0,0,.189,2.541,10.014,10.014,0,0,0,3.528,5.59,27.062,27.062,0,0,0,10.665,5.46A49.736,49.736,0,0,0,54.378,56.58c.767-.048,1.532-.166,2.3-.183a1.443,1.443,0,0,1,1.559,1.612,1.461,1.461,0,0,1-1.39,1.3c-1.037.129-2.086.218-3.128.3a49.234,49.234,0,0,1-9.032-.2,43.74,43.74,0,0,1-12.215-2.982,25.126,25.126,0,0,1-9.088-5.965,1.43,1.43,0,0,0-.242-.172c-.02.083-.048.133-.041.174.045.207.088.417.151.62a10.9,10.9,0,0,0,3.351,4.882,26.153,26.153,0,0,0,9.259,5.027,43.953,43.953,0,0,0,12.25,2.1,46.9,46.9,0,0,0,16.82-2.123,26.076,26.076,0,0,0,8.87-4.734,10.9,10.9,0,0,0,3.754-5.46c.038-.148.056-.3.085-.452a.754.754,0,0,0-.442.254,21.707,21.707,0,0,1-4.976,3.9c-.7.41-1.446.765-2.185,1.11a1.163,1.163,0,0,1-1.314-.278,1.432,1.432,0,0,1,.284-2.394c.794-.485,1.635-.9,2.429-1.388a17.7,17.7,0,0,0,4.546-4.012c2.161-2.7,1.883-5.839,1.8-9.054M7.027,79.266c.171.008.25.015.328.015,1.834-.008,3.669-.03,5.5-.015.4,0,.5-.077.46-.49-.263-2.772-.5-5.546-.743-8.319-.119-1.337-.239-2.674-.378-4.009a2,2,0,0,0-2.509-1.821c-.954.2-1.5.971-1.612,2.25-.25,2.855-.508,5.709-.753,8.564-.109,1.254-.2,2.51-.3,3.825M50.248,22.773a7.586,7.586,0,0,0-3.965.888,4.776,4.776,0,0,0-.859.814,4.7,4.7,0,0,0,.824.779,8.574,8.574,0,0,0,5.481.83,12.579,12.579,0,0,0,2.79-.854c.316-.119.541-.479.809-.729a4.789,4.789,0,0,0-.854-.827,8.1,8.1,0,0,0-4.225-.9M8.456,59.807a1.742,1.742,0,0,0,1.689,1.754A1.714,1.714,0,0,0,11.9,59.88,1.743,1.743,0,0,0,10.2,58.134a1.691,1.691,0,0,0-1.748,1.673" transform="translate(0 0)" fill="url(#linear-gradient)"/>
    <path id="Path_358" data-name="Path 358" d="M44.422,36.085a1.671,1.671,0,0,1,1.438,1.122,1.413,1.413,0,0,1-.614,1.62,2.655,2.655,0,0,1-.67.3c-.974.275-1.949.547-2.932.792a1.438,1.438,0,0,1-1.748-.9,1.29,1.29,0,0,1,.653-1.742c1.267-.463,2.58-.8,3.873-1.193" transform="translate(20.385 18.488)" fill="url(#linear-gradient)"/>
  </g>
</svg>
