<svg id="Group_154" data-name="Group 154" xmlns="http://www.w3.org/2000/svg" xmlns:xlink="http://www.w3.org/1999/xlink" width="102.584" height="87.373" viewBox="0 0 102.584 87.373">
  <defs>
    <linearGradient id="linear-gradient" x1="0.5" x2="0.5" y2="1" gradientUnits="objectBoundingBox">
      <stop offset="0" stop-color="#1a1818"/>
      <stop offset="1" stop-color="#666464"/>
    </linearGradient>
    <clipPath id="clip-path">
      <rect id="Rectangle_273" data-name="Rectangle 273" width="102.584" height="87.372" fill="url(#linear-gradient)"/>
    </clipPath>
  </defs>
  <g id="Group_153" data-name="Group 153" transform="translate(0 0)" clip-path="url(#clip-path)">
    <path id="Path_359" data-name="Path 359" d="M101.434,5.37a30.438,30.438,0,0,0-5.252-2.218,69.046,69.046,0,0,0-17.859-3C76.607.051,74.872,0,73.171,0A93.153,93.153,0,0,0,61.733.717,64.737,64.737,0,0,0,51.478,2.752a31.687,31.687,0,0,0-6.669,2.684A1.672,1.672,0,0,0,43.79,7.071V9.588c0,.985,0,1.969.017,2.969a2.18,2.18,0,0,1-1.834,2.268c-.75.15-1.5.333-2.233.533A93.677,93.677,0,0,0,14.194,26.347a50.618,50.618,0,0,0-9.871,7.387c-1.4,1.417-2.7,2.968-4.018,4.585-.283.333-.485.767-.067,1.668q1.9,4,3.767,8.035l2.735,5.853q1.9,4.1,3.818,8.187l.633,1.334c.951,2.034,1.952,4.136,3.051,6.086A34.853,34.853,0,0,0,29.919,83.956a36.736,36.736,0,0,0,12.589,3.318c.784.067,1.566.1,2.334.1a38.793,38.793,0,0,0,6.219-.552A9.861,9.861,0,0,0,56.1,84.789a34.574,34.574,0,0,0,8.988-10.822l1.9-3.734,2.1.6c.567.167,1.135.335,1.7.468l.635.15a7.132,7.132,0,0,0,1.733.316,3.822,3.822,0,0,0,.451-.032c.917-.2,1.851-.4,2.751-.651A35.257,35.257,0,0,0,97.7,54.659a34.681,34.681,0,0,0,4.851-17.792c.034-5.735.034-11.454.017-17.191q0-6.152.017-12.289a2,2,0,0,0-1.151-2.017M64.217,69.116A33.439,33.439,0,0,1,54.2,82.638a6.079,6.079,0,0,1-3.268,1.3c-1.417.167-2.817.316-3.869.417l-1.067.116h-.082c-9.622-.1-17.408-3.184-23.828-9.4a34.336,34.336,0,0,1-7.187-10.522c-2.151-4.7-4.352-9.4-6.553-14.09l-2.268-4.8c-.767-1.668-1.55-3.318-2.367-4.969a2.206,2.206,0,0,1,.4-2.618,49.579,49.579,0,0,1,9.7-8.121A92.009,92.009,0,0,1,39.539,18.342a45.541,45.541,0,0,1,9.622-1.585h.217a2.594,2.594,0,0,1,2.5,1.634q3.575,7.8,7.219,15.574l1.168,2.5c1.134,2.418,2.268,4.819,3.4,7.236a29.979,29.979,0,0,1,2.768,10.855,32.567,32.567,0,0,1-2.218,14.558m35.449-32.5a32.431,32.431,0,0,1-5.886,18.926A33,33,0,0,1,74.7,68.6a5.812,5.812,0,0,1-1.417.183,9.946,9.946,0,0,1-2.7-.466c-2.017-.584-2.534-1.468-2.068-3.5a33.873,33.873,0,0,0,0-15.624c-.032-.15-.05-.283-.082-.5L68.1,46.638l1.8-.15c.367-.017.717-.05,1.05-.084.818-.084,1.6-.15,2.385-.166H73.5a12.94,12.94,0,0,1,9.005,3.751,1.586,1.586,0,0,0,1.083.466,1.343,1.343,0,0,0,1.284-1,1.286,1.286,0,0,0-.382-1.45,16.131,16.131,0,0,0-9.1-4.535,13.862,13.862,0,0,0-2.2-.167,15.9,15.9,0,0,0-4.269.6,2.183,2.183,0,0,1-.651.084,2.058,2.058,0,0,1-1.885-1.25l-5.4-11.589-.183-.534L61.05,28.9s2.216-.283,2.467-.318a7.565,7.565,0,0,0,4.419-2.2,1.418,1.418,0,0,0,.15-1.918,1.377,1.377,0,0,0-1.1-.55,1.547,1.547,0,0,0-.7.166,1.858,1.858,0,0,0-.367.3A5.162,5.162,0,0,1,62.4,25.829a5.234,5.234,0,0,1-3.253-1.2,3.911,3.911,0,0,0-.434-.3,6.562,6.562,0,0,1-.767-.55,3.6,3.6,0,0,1-1.033-1.318l-.7-1.45c-.9-1.868-1.818-3.768-2.652-5.7a2.076,2.076,0,0,0-2.25-1.417h-4.6V11.438c-.015-.883-.015-1.767.017-2.65A2.115,2.115,0,0,1,48.16,6.955,38.582,38.582,0,0,1,55.229,4.7,72.638,72.638,0,0,1,66.118,3.186c2.169-.15,4.453-.217,6.77-.217,1.918,0,3.919.05,5.969.149A61.239,61.239,0,0,1,95.649,5.986c.567.184,1.134.417,1.684.633.3.133.616.266.917.384A2.128,2.128,0,0,1,99.7,9.1q-.026,13.756-.034,27.513" transform="translate(0 0)" fill="url(#linear-gradient)"/>
    <path id="Path_360" data-name="Path 360" d="M40.222,34.522a15.422,15.422,0,0,1-3.535,5.636A16.016,16.016,0,0,1,25.049,45.11a14.817,14.817,0,0,1-5.353-.966,1.4,1.4,0,0,1-1.018-1.468,1.425,1.425,0,0,1,1.3-1.267H20a4.353,4.353,0,0,1,1.149.234,15.877,15.877,0,0,0,4.1.6,12.674,12.674,0,0,0,7.153-2.2A12.694,12.694,0,0,0,37.37,34a3.787,3.787,0,0,1,.184-.4,1.535,1.535,0,0,1,1.334-1.067,1.315,1.315,0,0,1,.5.1,1.433,1.433,0,0,1,.833,1.883" transform="translate(13.207 23.02)" fill="url(#linear-gradient)"/>
    <path id="Path_361" data-name="Path 361" d="M35,24.042a1.435,1.435,0,0,1-1.4.951,1.4,1.4,0,0,1-.384-.034,9.058,9.058,0,0,0-1.935-.266,4.167,4.167,0,0,0-.633.05,4.744,4.744,0,0,0-3.867,3.118,1.449,1.449,0,0,1-1.118,1,1.6,1.6,0,0,1-.266.034,1.476,1.476,0,0,1-1.434-1.335l.017-.1a1.528,1.528,0,0,1,.05-.283,7.759,7.759,0,0,1,7.438-5.42,7.363,7.363,0,0,1,2.768.517A1.329,1.329,0,0,1,35,24.042" transform="translate(16.949 15.393)" fill="url(#linear-gradient)"/>
    <path id="Path_362" data-name="Path 362" d="M23,29.251a1.439,1.439,0,0,1-.417,1,1.56,1.56,0,0,1-.951.466l-.217-.05c-.266-.05-.533-.1-.816-.167a6.289,6.289,0,0,0-1.334-.166A4.844,4.844,0,0,0,14.729,33.4,1.788,1.788,0,0,1,13.9,34.42a1.538,1.538,0,0,1-.651.167,1.209,1.209,0,0,1-.816-.35c-.685-.6-.633-1.067-.483-1.468a7.675,7.675,0,0,1,5.785-5.117,6.445,6.445,0,0,1,1.617-.2,8.349,8.349,0,0,1,2.4.384A1.627,1.627,0,0,1,23,29.251" transform="translate(8.385 19.42)" fill="url(#linear-gradient)"/>
    <path id="Path_363" data-name="Path 363" d="M58,16.388a7.666,7.666,0,0,1-4.419,2.285c-.333.05-.666.084-.949.116l-.217.034a8.011,8.011,0,0,1-5.5-2.319,1.384,1.384,0,0,1-.333-1.684,1.432,1.432,0,0,1,1.2-.816,2.851,2.851,0,0,1,1,.4,2.127,2.127,0,0,1,.4.283,5.954,5.954,0,0,0,1.018.7,5.267,5.267,0,0,0,2.25.55,4.956,4.956,0,0,0,3.169-1.2A2.843,2.843,0,0,1,56.765,14h.2a1.357,1.357,0,0,1,1.25.767A1.3,1.3,0,0,1,58,16.388" transform="translate(32.846 9.907)" fill="url(#linear-gradient)"/>
  </g>
</svg>
