<svg xmlns="http://www.w3.org/2000/svg" xmlns:xlink="http://www.w3.org/1999/xlink" width="89.217" height="84.468" viewBox="0 0 89.217 84.468">
  <defs>
    <linearGradient id="linear-gradient" x1="0.5" x2="0.5" y2="1" gradientUnits="objectBoundingBox">
      <stop offset="0" stop-color="#1a1818"/>
      <stop offset="1" stop-color="#666464"/>
    </linearGradient>
    <clipPath id="clip-path">
      <rect id="Rectangle_276" data-name="Rectangle 276" width="89.217" height="84.468" fill="url(#linear-gradient)"/>
    </clipPath>
  </defs>
  <g id="Group_160" data-name="Group 160" transform="translate(0 0)">
    <g id="Group_159" data-name="Group 159" transform="translate(0 0)" clip-path="url(#clip-path)">
      <path id="Path_381" data-name="Path 381" d="M40.779,50.362c-.781.9-1.518,1.753-2.267,2.6q-2.568,2.906-5.144,5.8-4.344,4.883-8.69,9.764-3.487,3.923-6.969,7.85A8.373,8.373,0,0,1,12.7,79.216a8.249,8.249,0,0,1-8.492-3.974A8.336,8.336,0,0,1,5.927,64.709q6.718-5.985,13.453-11.952,2.669-2.371,5.343-4.74a1.58,1.58,0,0,1,1.753-.412,1.523,1.523,0,0,1,.6,2.524c-.615.653-1.309,1.234-1.981,1.834Q22,54.74,18.888,57.5,13.555,62.224,8.2,66.927a5.162,5.162,0,1,0,7.055,7.467c2.912-3.376,5.9-6.686,8.856-10.023q6.617-7.466,13.238-14.928Q44.871,40.97,52.394,32.5a1.618,1.618,0,0,1,2.265-.519,8.467,8.467,0,0,0,8.408-.8,8.97,8.97,0,0,0,1.273-1.117Q73.176,21.24,82,12.412q1.418-1.418,2.862-2.807a1.428,1.428,0,0,1,1.561-.373,1.546,1.546,0,0,1,.676,2.515c-.426.512-.9.987-1.373,1.459q-9.054,9.066-18.123,18.118a21.073,21.073,0,0,1-2.71,2.385A11.422,11.422,0,0,1,54.62,35.332a.561.561,0,0,0-.7.209q-2.285,2.631-4.612,5.225c-.234.262-.212.378.05.611Q54.8,46.177,60.217,51,67.532,57.5,74.848,63.987a10.507,10.507,0,0,1,3.223,4.358A8.308,8.308,0,0,1,71.653,79.2a7.857,7.857,0,0,1-7.441-2.459c-2.649-2.89-5.24-5.836-7.847-8.765q-6.357-7.147-12.7-14.3c-.848-.956-1.675-1.931-2.512-2.9-.1-.119-.211-.233-.373-.412M42.936,48c.084.1.161.209.245.306q1.936,2.184,3.873,4.368,5.589,6.282,11.18,12.566c2.687,3.032,5.35,6.086,8.033,9.123a5.019,5.019,0,0,0,4.772,1.745,4.828,4.828,0,0,0,4.03-3.363A4.94,4.94,0,0,0,74.031,67.6a17.359,17.359,0,0,0-1.515-1.373q-7.883-7-15.764-14Q52,48,47.268,43.741c-.245-.22-.392-.25-.628.023-1.212,1.409-2.443,2.8-3.7,4.238" transform="translate(1.712 5.135)" fill="url(#linear-gradient)"/>
      <path id="Path_382" data-name="Path 382" d="M42.5,38.887c1.017-.9,2.045-1.823,3.077-2.734.948-.836,1.892-1.676,2.86-2.487a.758.758,0,0,0,.283-.929,11.181,11.181,0,0,1,2.934-11.626C58.39,14.285,65.2,7.533,71.978.752c.112-.112.228-.223.35-.328a1.509,1.509,0,0,1,2.123.025,1.5,1.5,0,0,1,.1,2.118c-.258.312-.562.586-.85.873q-9.8,9.8-19.6,19.6a8.49,8.49,0,0,0-2.662,7.292,11.808,11.808,0,0,0,.659,2.465,1.682,1.682,0,0,1-.522,2.282q-4.391,3.951-8.807,7.869-2.54,2.259-5.111,4.48a1.489,1.489,0,0,1-2.37-.1c-1.636-1.771-3.226-3.585-4.832-5.383-.311-.345-.634-.681-.914-1.051a.455.455,0,0,0-.667-.137,15.51,15.51,0,0,1-4.04,1.315,15.628,15.628,0,0,1-14-4.221A37.517,37.517,0,0,1,2.21,25.771a22.2,22.2,0,0,1-2.2-9.86C.232,9.373,4.441,5.132,10.187,4.377a19.893,19.893,0,0,1,9.193,1.2,32.221,32.221,0,0,1,6.488,3.135,37.344,37.344,0,0,1,8.1,6.694,15.881,15.881,0,0,1,4.119,9.759,15.686,15.686,0,0,1-1.542,7.9c-.112.241-.183.425.069.645,1.97,1.718,3.927,3.449,5.894,5.18M40.171,41a4.067,4.067,0,0,1-.392-.259c-.964-.837-1.932-1.673-2.887-2.523q-1.675-1.493-3.329-3.009a1.609,1.609,0,0,1-.414-2.412c.083-.155.166-.308.248-.461a12.935,12.935,0,0,0-1.553-14.608,37.622,37.622,0,0,0-6.28-5.43,27.745,27.745,0,0,0-5.85-3.241,17.893,17.893,0,0,0-9.342-1.509A7.885,7.885,0,0,0,5.028,10.5a9.368,9.368,0,0,0-1.845,6.3A20.133,20.133,0,0,0,5.06,24.483,34.561,34.561,0,0,0,12.92,35.516a12.507,12.507,0,0,0,12.721,3.117,19.449,19.449,0,0,0,3.1-1.356,1.558,1.558,0,0,1,2.048.316c.092.094.183.187.27.284l4.219,4.7,1.345,1.5c1.173-1.017,2.3-2,3.549-3.082" transform="translate(0 -0.001)" fill="url(#linear-gradient)"/>
      <path id="Path_383" data-name="Path 383" d="M61.081,7.669A1.946,1.946,0,0,1,60.4,8.8q-3.379,3.372-6.752,6.749-4.269,4.267-8.54,8.533c-.328.328-.664.648-1,.975a1.553,1.553,0,0,1-2.318.1,1.5,1.5,0,0,1,.036-2.282c1.106-1.153,2.25-2.27,3.381-3.4Q51.679,13,58.154,6.533A1.629,1.629,0,0,1,60.1,5.972a1.716,1.716,0,0,1,.986,1.7" transform="translate(23.207 3.278)" fill="url(#linear-gradient)"/>
      <path id="Path_384" data-name="Path 384" d="M58.17,4.5a2,2,0,0,1-.73,1.431q-3.454,3.445-6.9,6.9-4.511,4.513-9.022,9.028a5.53,5.53,0,0,1-.645.581,1.542,1.542,0,0,1-2.129-2.187,6.911,6.911,0,0,1,.586-.644L55.158,3.778a2.084,2.084,0,0,1,1.487-.8A1.55,1.55,0,0,1,58.17,4.5" transform="translate(21.587 1.675)" fill="url(#linear-gradient)"/>
    </g>
  </g>
</svg>
