<svg id="Group_158" data-name="Group 158" xmlns="http://www.w3.org/2000/svg" xmlns:xlink="http://www.w3.org/1999/xlink" width="99.13" height="84.468" viewBox="0 0 99.13 84.468">
  <defs>
    <linearGradient id="linear-gradient" x1="0.5" x2="0.5" y2="1" gradientUnits="objectBoundingBox">
      <stop offset="0" stop-color="#1a1818"/>
      <stop offset="1" stop-color="#666464"/>
    </linearGradient>
    <clipPath id="clip-path">
      <rect id="Rectangle_275" data-name="Rectangle 275" width="99.13" height="84.468" fill="url(#linear-gradient)"/>
    </clipPath>
  </defs>
  <g id="Group_157" data-name="Group 157" transform="translate(0 0)" clip-path="url(#clip-path)">
    <path id="Path_375" data-name="Path 375" d="M40.451.52V39.913a1.184,1.184,0,0,1-.072.484,3.085,3.085,0,0,1-.448.036L20.2,40.451.484,40.433a1.2,1.2,0,0,1-.448-.054A2.922,2.922,0,0,1,0,39.967V.466A.9.9,0,0,1,.072.036,2.527,2.527,0,0,1,.466,0h10.61V21.2l2.832-1.272c.233-.108.448-.2.645-.3l1.039-.538c1.541-.789,3.1-1.577,4.642-2.384q2.2,1.156,4.409,2.258l1.416.735,3.28,1.559V0H39.913a1.555,1.555,0,0,1,.5.054c-.018.018.036.161.036.466" transform="translate(0 0)" fill="url(#linear-gradient)"/>
    <path id="Path_376" data-name="Path 376" d="M99.12,45.023A15.913,15.913,0,0,1,96.235,54.5a16.162,16.162,0,0,1-12.4,7.169,21.758,21.758,0,0,1-2.33.09H.028V58.017h82.55A12.8,12.8,0,1,0,82.7,32.424L.01,32.406V28.66H41.464q20.485,0,40.988.018a15.987,15.987,0,0,1,12.4,5.466A16.259,16.259,0,0,1,99.12,45.023" transform="translate(0.008 22.705)" fill="url(#linear-gradient)"/>
    <path id="Path_377" data-name="Path 377" d="M66.59,15.764c-.341.341-.7.663-1.039.968q-6.4,5.753-12.832,11.47c0-1.4.018-8.71.018-8.71H31.373a2.225,2.225,0,0,1-.627-.072c.018-.036-.036-.2-.036-.574V12.663a1.66,1.66,0,0,1,.072-.556H30.8a3.706,3.706,0,0,1,.5-.036H52.736V3.29c.448.394.9.789,1.326,1.2q5.753,5.162,11.506,10.341c.341.3.681.609,1.022.932" transform="translate(24.329 2.606)" fill="url(#linear-gradient)"/>
    <path id="Path_378" data-name="Path 378" d="M33.588,40.394a5.622,5.622,0,0,1-5.52,5.484H28.05a5.656,5.656,0,0,1-5.52-5.592,5.491,5.491,0,0,1,1.649-3.835,5.343,5.343,0,0,1,3.746-1.631,5.511,5.511,0,0,1,5.663,5.574" transform="translate(17.849 27.585)" fill="url(#linear-gradient)"/>
    <path id="Path_379" data-name="Path 379" d="M49.944,40.376a5.412,5.412,0,0,1-5.484,5.466h-.054a5.39,5.39,0,0,1-5.484-5.556,5.2,5.2,0,0,1,1.541-3.764,5.5,5.5,0,0,1,9.481,3.853" transform="translate(30.832 27.585)" fill="url(#linear-gradient)"/>
    <path id="Path_380" data-name="Path 380" d="M17.208,40.348a5.633,5.633,0,0,1-5.52,5.538A5.671,5.671,0,0,1,6.15,40.294a5.466,5.466,0,0,1,1.631-3.8,5.536,5.536,0,0,1,3.871-1.685,5.632,5.632,0,0,1,5.556,5.538" transform="translate(4.872 27.577)" fill="url(#linear-gradient)"/>
  </g>
</svg>
