<svg xmlns="http://www.w3.org/2000/svg" xmlns:xlink="http://www.w3.org/1999/xlink" width="88.033" height="82.266" viewBox="0 0 88.033 82.266">
  <defs>
    <linearGradient id="linear-gradient" x1="0.5" x2="0.5" y2="1" gradientUnits="objectBoundingBox">
      <stop offset="0" stop-color="#1a1818"/>
      <stop offset="1" stop-color="#666464"/>
    </linearGradient>
    <clipPath id="clip-path">
      <rect id="Rectangle_271" data-name="Rectangle 271" width="88.033" height="82.266" fill="url(#linear-gradient)"/>
    </clipPath>
  </defs>
  <g id="Group_150" data-name="Group 150" transform="translate(0 0)">
    <g id="Group_149" data-name="Group 149" transform="translate(0 0)" clip-path="url(#clip-path)">
      <path id="Path_348" data-name="Path 348" d="M39.654,26.031H40.3q3.189,0,6.376,0a1.608,1.608,0,0,1,1.788,1.788q0,4.08,0,8.164a1.6,1.6,0,0,1-1.782,1.789c-2.157.006-4.312,0-6.468,0h-.558v.513q0,3.212,0,6.42c0,1.284-.593,1.872-1.886,1.874q-3.99,0-7.981,0A1.643,1.643,0,0,1,27.91,44.7q0-3.189,0-6.376v-.547h-.525q-3.209,0-6.42,0A1.635,1.635,0,0,1,19.1,35.92q0-4.011,0-8.026a1.634,1.634,0,0,1,1.854-1.863c2.293,0,4.586,0,6.955,0v-.495q0-3.209,0-6.42c0-1.289.6-1.892,1.871-1.892q4.014,0,8.026,0a1.632,1.632,0,0,1,1.848,1.866c0,2.292,0,4.583,0,6.941m5.861,2.935h-.539q-3.212,0-6.423,0a1.628,1.628,0,0,1-1.834-1.837q0-3.235,0-6.468v-.479H30.846v6.8c0,1.442-.547,1.983-2.006,1.983H22.072v5.872c2.329,0,4.622,0,6.913,0a1.632,1.632,0,0,1,1.86,1.855q0,3.209,0,6.422v.5h5.874v-.528q0-3.143,0-6.285c0-1.407.564-1.963,1.984-1.965h6.812Z" transform="translate(10.237 9.23)" fill="url(#linear-gradient)"/>
      <path id="Path_349" data-name="Path 349" d="M38.191.029c2.141,0,4.281.022,6.422,0a22.07,22.07,0,0,1,10.3,2.514C58.272,4.221,61.67,5.818,65.073,7.4a17.463,17.463,0,0,0,7.41,1.432c2,.009,4.006-.009,6.009.014a2.482,2.482,0,0,1,1.046.261,1.261,1.261,0,0,1,.705,1.247,1.362,1.362,0,0,1-.914,1.261,1.839,1.839,0,0,1-.667.146c-2.522,0-5.046.026-7.566-.051A19.85,19.85,0,0,1,63.273,9.79c-3.5-1.634-6.967-3.327-10.426-5.041A17.157,17.157,0,0,0,45.11,2.964c-4.769,0-9.54-.006-14.311.011a3.391,3.391,0,0,0-1.24.241c-3.915,1.593-7.82,3.21-11.732,4.811a.683.683,0,0,0-.478.773,2.918,2.918,0,0,0,3.179,3.083A17.3,17.3,0,0,0,26,10.907c.865-.247,1.711-.558,2.577-.8a1.257,1.257,0,0,1,1.441.554,1.315,1.315,0,0,1,.048,1.55,1.517,1.517,0,0,1-.685.567,29.745,29.745,0,0,1-7.969,1.989,7.783,7.783,0,0,1-3.459-.516,5.625,5.625,0,0,1-3.3-6.453,3.206,3.206,0,0,1,2.081-2.416c3.536-1.428,7.082-2.839,10.574-4.374a11.244,11.244,0,0,1,5.142-1c1.908.081,3.822.018,5.732.018" transform="translate(7.789 0)" fill="url(#linear-gradient)"/>
      <path id="Path_350" data-name="Path 350" d="M41.494,58.691c-1.713,0-3.427-.057-5.136.012A21.945,21.945,0,0,1,25.374,56.17c-3.238-1.644-6.52-3.2-9.812-4.737a15.271,15.271,0,0,0-6.153-1.465c-2.522-.055-5.043-.055-7.565-.091a3,3,0,0,1-.9-.14A1.4,1.4,0,0,1,.98,47.075a1.972,1.972,0,0,1,.627-.121c2.613.017,5.228,0,7.84.083a18.628,18.628,0,0,1,7.127,1.717c2.96,1.342,5.86,2.812,8.794,4.212,1.322.63,2.647,1.261,4,1.82a15.2,15.2,0,0,0,5.841.965q7.179.025,14.357,0a3.627,3.627,0,0,0,1.319-.312q5.7-2.329,11.383-4.694c.674-.278.673-.281.607-1.012a2.857,2.857,0,0,0-3.066-2.9,17.134,17.134,0,0,0-5.568.978c-.789.229-1.561.528-2.353.753A1.385,1.385,0,0,1,50.237,48a1.338,1.338,0,0,1,.1-1.657,1.847,1.847,0,0,1,.71-.479,31.125,31.125,0,0,1,7.574-1.892,7.658,7.658,0,0,1,4.189.72,5.747,5.747,0,0,1,2.627,6.775,3.016,3.016,0,0,1-1.773,1.8Q59.427,55.01,55.2,56.76c-1.213.5-2.428,1-3.636,1.511a5,5,0,0,1-2.041.427c-2.676-.02-5.351-.008-8.027-.008" transform="translate(0 23.547)" fill="url(#linear-gradient)"/>
      <path id="Path_351" data-name="Path 351" d="M44.208,53.8a4.709,4.709,0,0,0-.155-2.946,5.265,5.265,0,0,0-1.691-2.239A13.516,13.516,0,0,0,38.8,46.565c-2.67-1.091-5.336-2.193-8.006-3.284a1.766,1.766,0,0,1-.977-.909,9.878,9.878,0,0,0-7.734-5.648,14.609,14.609,0,0,0-7.709.777,4.961,4.961,0,0,1-1.694.3q-5.437.039-10.872,0a2.52,2.52,0,0,1-1.236-.366,1.207,1.207,0,0,1-.545-1.315,1.4,1.4,0,0,1,1.017-1.132,2.69,2.69,0,0,1,.766-.1c3.594,0,7.187.014,10.781-.011a5.2,5.2,0,0,0,1.548-.33,16.215,16.215,0,0,1,11.813.327,12.467,12.467,0,0,1,6.078,5.485,1.4,1.4,0,0,0,.619.558c2.587,1.1,5.187,2.155,7.774,3.247a13.526,13.526,0,0,1,3.72,2.135,8.447,8.447,0,0,1,3.135,5.766,8.717,8.717,0,0,1-.945,4.43,1.325,1.325,0,0,1-1.771.605c-1.573-.625-3.133-1.286-4.7-1.934q-5.857-2.431-11.713-4.864a4.5,4.5,0,0,1-.538-.25,1.4,1.4,0,0,1-.608-1.816,1.352,1.352,0,0,1,1.706-.765c1.313.5,2.6,1.049,3.9,1.587q5.73,2.373,11.458,4.751a.492.492,0,0,0,.134,0" transform="translate(0.002 18.001)" fill="url(#linear-gradient)"/>
      <path id="Path_352" data-name="Path 352" d="M29.613,7.984a4.749,4.749,0,0,0,.816,4.1,8.328,8.328,0,0,0,3.508,2.654c2.885,1.25,5.792,2.447,8.7,3.628A2.837,2.837,0,0,1,44.19,19.8a9.832,9.832,0,0,0,6.668,5.095,14.116,14.116,0,0,0,8.3-.5,6.568,6.568,0,0,1,2.282-.409c3.548.018,7.1.008,10.644.009a1.592,1.592,0,0,1,1.63.955,1.4,1.4,0,0,1-.906,1.863,3.043,3.043,0,0,1-.859.111c-3.623.008-7.248,0-10.873.011a2.5,2.5,0,0,0-.8.135,17.149,17.149,0,0,1-8.062,1.044,13.534,13.534,0,0,1-10.474-6.734,1.322,1.322,0,0,0-.6-.5c-2.7-1.146-5.413-2.25-8.105-3.407a12.044,12.044,0,0,1-4.628-3.29,7.632,7.632,0,0,1-1.882-5,9.033,9.033,0,0,1,.914-3.757,1.407,1.407,0,0,1,2.018-.647c2.385.983,4.763,1.98,7.145,2.968q4.357,1.806,8.715,3.606a6.366,6.366,0,0,1,.989.475,1.4,1.4,0,0,1-1.181,2.524c-1.355-.516-2.688-1.087-4.027-1.642q-5.5-2.276-11-4.557c-.137-.058-.283-.1-.479-.163" transform="translate(14.213 2.464)" fill="url(#linear-gradient)"/>
      <path id="Path_353" data-name="Path 353" d="M8.56,33.668a31.245,31.245,0,0,1,6.013-18.423,1.693,1.693,0,0,1,1.436-.84,1.4,1.4,0,0,1,1.264,1.883,3.853,3.853,0,0,1-.439.746,27.457,27.457,0,0,0-4.8,21.556c.04.209.078.419.114.631a1.446,1.446,0,0,1-1.038,1.7,1.383,1.383,0,0,1-1.762-1.049c-.238-1.055-.412-2.129-.544-3.2-.134-1.1-.184-2.219-.246-3" transform="translate(4.588 7.72)" fill="url(#linear-gradient)"/>
      <path id="Path_354" data-name="Path 354" d="M51.836,29.063a32.157,32.157,0,0,1-3.825,15.106,41.044,41.044,0,0,1-2.39,3.636,1.318,1.318,0,0,1-1.432.6,1.467,1.467,0,0,1-1.146-1.124,1.565,1.565,0,0,1,.362-1.275c.923-1.51,1.938-2.974,2.729-4.551A25.657,25.657,0,0,0,48.794,31.3a31.258,31.258,0,0,0-.444-7.439,1.567,1.567,0,0,1,.192-1.278,1.385,1.385,0,0,1,1.389-.621,1.271,1.271,0,0,1,1.13,1c.215,1.046.412,2.1.541,3.158.134,1.091.178,2.19.235,2.943" transform="translate(23.051 11.759)" fill="url(#linear-gradient)"/>
      <path id="Path_355" data-name="Path 355" d="M17,11.43a1.521,1.521,0,0,1,1.456,1.479,1.856,1.856,0,0,1-1.706,1.62,1.54,1.54,0,0,1-1.458-1.436A1.815,1.815,0,0,1,17,11.43" transform="translate(8.196 6.126)" fill="url(#linear-gradient)"/>
      <path id="Path_356" data-name="Path 356" d="M41.777,40.193a1.5,1.5,0,0,1,1.458,1.464,1.746,1.746,0,0,1-1.642,1.5,1.522,1.522,0,0,1-1.441-1.445,1.568,1.568,0,0,1,1.625-1.514" transform="translate(21.521 21.542)" fill="url(#linear-gradient)"/>
    </g>
  </g>
</svg>
