<svg xmlns="http://www.w3.org/2000/svg" xmlns:xlink="http://www.w3.org/1999/xlink" width="94" height="84.468" viewBox="0 0 94 84.468">
  <defs>
    <linearGradient id="linear-gradient" x1="0.5" x2="0.5" y2="1" gradientUnits="objectBoundingBox">
      <stop offset="0" stop-color="#1a1818"/>
      <stop offset="1" stop-color="#666464"/>
    </linearGradient>
    <clipPath id="clip-path">
      <rect id="Rectangle_274" data-name="Rectangle 274" width="94" height="84.468" fill="url(#linear-gradient)"/>
    </clipPath>
  </defs>
  <g id="Group_156" data-name="Group 156" transform="translate(0 0)">
    <g id="Group_155" data-name="Group 155" transform="translate(0 0)" clip-path="url(#clip-path)">
      <path id="Path_364" data-name="Path 364" d="M54.933,40.6a2.527,2.527,0,0,1-.039-.3,5.873,5.873,0,0,0-6.02-6.223c-3.743-.005-7.484-.016-11.226-.012a6.444,6.444,0,0,1-2.737-.59c-2.987-1.372-5.984-2.723-8.976-4.086a14.242,14.242,0,0,0-6.308-1.365c-2.4.055-4.8.016-7.2,0-.347,0-.45.108-.439.436.027.687.05,1.374.035,2.061-.009.407.152.5.536.5C15.041,31,17.52,31.037,20,31a10.713,10.713,0,0,1,4.686,1.007c3.166,1.445,6.342,2.868,9.507,4.313a8.143,8.143,0,0,0,3.486.726c3.821-.019,7.643-.016,11.465-.011a2.89,2.89,0,0,1,2.716,3.81,2.98,2.98,0,0,1-3.148,2.009q-4.679-.013-9.355-.023c-1.792,0-3.583.005-5.373-.009-.388,0-.538.1-.513.517a18.224,18.224,0,0,1,0,1.967c-.019.413.133.508.522.506q7.269-.013,14.537,0a7.07,7.07,0,0,0,2.806-.531q5.441-2.313,10.885-4.623c3.541-1.5,7.078-3.012,10.633-4.481a6.505,6.505,0,0,1,5.694.3,6.349,6.349,0,0,1,2.638,2.532c-.136.083-.241.152-.352.211q-2.5,1.323-4.994,2.643Q67.819,46.112,59.8,50.358,52.2,54.392,44.623,58.451a12.2,12.2,0,0,1-9.789.857c-1.521-.48-3.036-.979-4.555-1.469q-6.148-1.981-12.3-3.953a5.338,5.338,0,0,0-1.356-.267c-1.406-.066-2.813-.078-4.219-.124-.354-.011-.43.15-.423.467.018.671.025,1.344-.005,2.015-.018.395.106.545.51.529.83-.034,1.664-.074,2.493-.035a9.531,9.531,0,0,1,2.406.278c5.586,1.758,11.154,3.575,16.729,5.364a14.52,14.52,0,0,0,11.308-.843c2.128-1.062,4.217-2.2,6.32-3.311q8.96-4.73,17.915-9.467,7.112-3.768,14.21-7.558c1.076-.572,1.073-.558.639-1.719a9.652,9.652,0,0,0-12.846-5.669q-6.039,2.557-12.089,5.1c-1.526.643-3.049,1.291-4.635,1.963" transform="translate(9.223 21.59)" fill="url(#linear-gradient)"/>
      <path id="Path_365" data-name="Path 365" d="M52.459,32.591a.664.664,0,0,1-.193-.027c-2-1.2-3.994-2.408-6-3.6a2.114,2.114,0,0,0-.662-.22c-.613-.127-1.041.258-1.526.536-1.565.9-3.153,1.753-4.732,2.626l-.995.554a1.692,1.692,0,0,1,0-.315c.326-1.383.664-2.762.981-4.146.23-1.011.441-2.025.643-3.042a1.015,1.015,0,0,0-.382-1.014c-1.055-.954-2.089-1.933-3.116-2.916-.207-.2-.328-.177-.5.021-.494.544-.991,1.087-1.512,1.606-.234.232-.209.363.027.57.742.657,1.471,1.326,2.183,2.015a.659.659,0,0,1,.166.522c-.735,3.189-1.5,6.37-2.227,9.559a.844.844,0,0,0,.209.65,6.057,6.057,0,0,0,1.034.852.628.628,0,0,0,.536.034q4.326-2.369,8.634-4.778a.627.627,0,0,1,.735,0q3.731,2.257,7.48,4.486c.421.251.871.7,1.278.669.436-.034.837-.526,1.255-.818.025-.019.064-.034.074-.058.073-.191.23-.4.2-.575q-.895-4.7-1.843-9.4a.935.935,0,0,1,.365-1.029q3.251-2.77,6.462-5.579a1.79,1.79,0,0,0,.6-2.383.712.712,0,0,0-.687-.554c-.382-.025-.763-.078-1.144-.124-2.806-.342-5.611-.689-8.418-1.022a.551.551,0,0,1-.526-.384c-.46-1.122-.944-2.236-1.422-3.351-.791-1.848-1.581-3.7-2.385-5.54-.085-.195-.23-.483-.382-.508a4.652,4.652,0,0,0-1.563-.051c-.221.041-.411.457-.544.735-1.349,2.822-2.679,5.655-4.033,8.475a.8.8,0,0,1-.512.375,8.586,8.586,0,0,1-1.384.1c-.331.005-.407.156-.379.45.066.685.136,1.369.165,2.055.016.349.112.485.482.441a17.283,17.283,0,0,1,2.2-.179,1.755,1.755,0,0,0,1.744-1.227c.659-1.455,1.338-2.9,2.013-4.346.287-.616.579-1.227.914-1.935.119.209.2.322.251.446q.818,1.915,1.629,3.835c.3.706.609,1.408.846,2.133a4.476,4.476,0,0,1,.106,1.075l8.348.967c.009.051.016.1.025.154-.159.149-.315.3-.48.444-1.62,1.4-3.228,2.817-4.867,4.2a1.419,1.419,0,0,0-.508,1.524c.313,1.549.607,3.1.9,4.653.15.777.289,1.556.436,2.358" transform="translate(26.428 4.478)" fill="url(#linear-gradient)"/>
      <path id="Path_366" data-name="Path 366" d="M21.062,10.834c.108.2.184.317.237.444.494,1.16.979,2.323,1.477,3.481.471,1.1.945,2.2,1.441,3.288a.712.712,0,0,0,.421.386c1.282.174,2.567.315,3.854.444a.409.409,0,0,0,.324-.227c.122-.788.225-1.581.294-2.376a.475.475,0,0,0-.3-.343,18.134,18.134,0,0,0-1.855-.209.908.908,0,0,1-.924-.648c-.372-.984-.807-1.944-1.223-2.912-.859-1.994-1.723-3.984-2.574-5.981a.549.549,0,0,0-.71-.386,1.214,1.214,0,0,1-.382.034c-.8-.067-1.176.269-1.51,1.048-1.177,2.758-2.495,5.455-3.743,8.183a.676.676,0,0,1-.643.453q-4.9.385-9.8.806a.663.663,0,0,0-.473.335,10.225,10.225,0,0,0-.437,1.516.589.589,0,0,0,.182.462c.377.343.807.627,1.181.974,1.958,1.815,3.895,3.652,5.865,5.455a.9.9,0,0,1,.322,1.018c-.667,2.778-1.3,5.563-1.947,8.348-.106.462-.393,1.006-.246,1.372.158.395.747.6,1.112.933a.653.653,0,0,0,.887.048c2.788-1.56,5.589-3.095,8.38-4.647a.724.724,0,0,1,.83.005c2.516,1.521,5.044,3.02,7.56,4.538,1.158.7,1.138.69,2.238-.067a.885.885,0,0,0,.411-1.071c-.627-3.049-1.2-6.11-1.816-9.16a.873.873,0,0,1,.388-.976c.575-.45,1.117-.94,1.684-1.423-.6-.685-1.147-1.328-1.723-1.947a.436.436,0,0,0-.416-.06c-.9.761-1.79,1.544-2.68,2.325a1.077,1.077,0,0,0-.352,1.119c.276,1.377.524,2.76.781,4.141.193,1.03.381,2.061.582,3.162-.175-.09-.274-.136-.366-.193-1.914-1.156-3.822-2.321-5.745-3.461a3.328,3.328,0,0,0-.929-.29c-.522-.124-.855.262-1.253.483-1.616.9-3.238,1.8-4.858,2.7l-.995.556c.15-.7.271-1.271.4-1.841q.627-2.826,1.253-5.653a.988.988,0,0,0-.359-1.02c-1.719-1.577-3.424-3.171-5.133-4.761-.073-.067-.129-.147-.246-.28,2.369-.218,4.654-.459,6.947-.62a1.65,1.65,0,0,0,1.567-1.03c.112-.246.235-.489.349-.735.88-1.878,1.756-3.759,2.679-5.733" transform="translate(3.49 4.444)" fill="url(#linear-gradient)"/>
      <path id="Path_367" data-name="Path 367" d="M.006,28.859h1.37q6.5.005,13,.014c.637,0,.634.014.634.687q.005,15.156.023,30.314c0,.466-.09.639-.6.637C9.828,60.493,5.223,60.5.62,60.5,0,60.5.006,60.5.011,61.108s.03,1.25-.009,1.87c-.025.4.122.5.487.489,1.2-.032,2.4-.058,3.6-.058,3.582,0,7.163.03,10.743.019a2.954,2.954,0,0,0,3.128-3.084q.011-15.637,0-31.273a3.553,3.553,0,0,0-.089-.855,3.056,3.056,0,0,0-3.2-2.337q-6.931-.008-13.863,0a1.36,1.36,0,0,0-.474.016c-.129.05-.308.2-.312.312-.027.857-.014,1.717-.014,2.656" transform="translate(0 19.925)" fill="url(#linear-gradient)"/>
      <path id="Path_368" data-name="Path 368" d="M8.04,43.7a2.107,2.107,0,0,0-2.089-2.066,2.111,2.111,0,0,0-2.02,2.086,1.974,1.974,0,0,0,2.017,2.04A2.093,2.093,0,0,0,8.04,43.7" transform="translate(3.029 32.075)" fill="url(#linear-gradient)"/>
      <path id="Path_369" data-name="Path 369" d="M54.933,40.6c1.586-.673,3.109-1.321,4.635-1.963q6.044-2.549,12.089-5.1A9.652,9.652,0,0,1,84.5,39.215c.434,1.161.437,1.147-.639,1.719q-7.107,3.776-14.21,7.558Q60.7,53.235,51.739,57.959c-2.1,1.11-4.192,2.248-6.32,3.311a14.52,14.52,0,0,1-11.308.843c-5.575-1.79-11.143-3.606-16.729-5.364a9.531,9.531,0,0,0-2.406-.278c-.829-.039-1.662,0-2.493.035-.4.016-.528-.135-.51-.529.03-.671.023-1.344.005-2.015-.007-.317.069-.478.423-.467,1.406.046,2.813.058,4.219.124a5.338,5.338,0,0,1,1.356.267q6.156,1.963,12.3,3.953c1.519.49,3.035.99,4.555,1.469a12.2,12.2,0,0,0,9.789-.857Q52.208,54.4,59.8,50.358q8.015-4.26,16.046-8.493,2.5-1.32,4.994-2.643c.112-.058.216-.127.352-.211A6.349,6.349,0,0,0,78.55,36.48a6.505,6.505,0,0,0-5.694-.3c-3.555,1.469-7.092,2.981-10.633,4.481q-5.444,2.305-10.885,4.623a7.07,7.07,0,0,1-2.806.531q-7.269,0-14.537,0c-.389,0-.542-.094-.522-.506a18.224,18.224,0,0,0,0-1.967c-.025-.414.126-.521.513-.517,1.79.014,3.582.005,5.373.009q4.677.008,9.355.023a2.98,2.98,0,0,0,3.148-2.009,2.89,2.89,0,0,0-2.716-3.81c-3.822-.005-7.645-.009-11.465.011a8.143,8.143,0,0,1-3.486-.726c-3.166-1.445-6.342-2.868-9.507-4.313A10.713,10.713,0,0,0,20,31c-2.479.037-4.957,0-7.436.018-.384,0-.545-.09-.536-.5.014-.687-.009-1.374-.035-2.061-.011-.328.092-.437.439-.436,2.4.019,4.8.058,7.2,0a14.242,14.242,0,0,1,6.308,1.365c2.992,1.363,5.989,2.714,8.976,4.086a6.444,6.444,0,0,0,2.737.59c3.743,0,7.484.007,11.226.012a5.873,5.873,0,0,1,6.02,6.223,2.527,2.527,0,0,0,.039.3" transform="translate(9.223 21.59)" fill="url(#linear-gradient)"/>
      <path id="Path_370" data-name="Path 370" d="M35.868.019c.956,0,.956,0,1.331.885q2.212,5.224,4.415,10.451a.593.593,0,0,0,.556.414q4.948.592,9.9,1.206c.584.073,1.17.15,1.76.214a.7.7,0,0,1,.65.526c.492,1.379.521,1.4-.563,2.342-2.006,1.76-4.035,3.493-6.057,5.237-.726.625-1.443,1.262-2.181,1.873a.647.647,0,0,0-.239.71c.432,2.178.855,4.355,1.284,6.533q.491,2.512.99,5.025a.694.694,0,0,1-.271.692c-.844.85-1.572.731-2.557.1-3.015-1.923-6.11-3.718-9.169-5.572a.638.638,0,0,0-.737-.023q-5.184,2.9-10.391,5.756c-.145.08-.372.016-.559.009-.041,0-.08-.05-.119-.078-1.257-.857-1.25-.855-.9-2.325.823-3.511,1.638-7.023,2.468-10.532a.64.64,0,0,0-.22-.708q-4.323-4.01-8.638-8.033a.551.551,0,0,1-.181-.706,3.426,3.426,0,0,0,.257-.821c.073-.522.395-.659.859-.7,2.388-.186,4.778-.386,7.167-.584,1.514-.126,3.026-.246,4.538-.4a.659.659,0,0,0,.441-.329C31.353,7.669,33.01,4.148,34.623.6c.223-.487.469-.662.958-.586a1.937,1.937,0,0,0,.287,0M21.4,15.133a1.173,1.173,0,0,0,.131.216c2.33,2.167,4.663,4.325,6.983,6.5a.763.763,0,0,1,.2.6c-.485,2.148-1,4.286-1.5,6.43-.232.986-.45,1.974-.706,3.1.315-.15.526-.237.724-.347q3.829-2.13,7.652-4.274a.882.882,0,0,1,1.009.012c2.62,1.592,5.251,3.164,7.88,4.741a3.43,3.43,0,0,0,.322.145c-.021-.2-.023-.345-.051-.483q-.874-4.512-1.755-9.022a.611.611,0,0,1,.2-.673q3.582-3.075,7.14-6.179a1.706,1.706,0,0,0,.175-.23c-.17-.039-.292-.08-.416-.094-2.9-.358-5.8-.735-8.7-1.05A1.327,1.327,0,0,1,39.43,13.6c-1.11-2.684-2.259-5.35-3.4-8.02a4.815,4.815,0,0,0-.285-.5C34.37,8.043,33.03,10.92,31.705,13.8a.755.755,0,0,1-.68.5c-1.894.161-3.787.331-5.681.494-1.285.112-2.572.22-3.939.335" transform="translate(12.614 0)" fill="url(#linear-gradient)"/>
      <path id="Path_371" data-name="Path 371" d="M52.459,32.591c-.147-.8-.285-1.581-.436-2.358-.3-1.551-.591-3.1-.9-4.653a1.419,1.419,0,0,1,.508-1.524c1.639-1.379,3.247-2.794,4.867-4.2.165-.142.32-.3.48-.444-.009-.051-.016-.1-.025-.154L48.6,18.294A4.476,4.476,0,0,0,48.5,17.22c-.237-.726-.551-1.427-.846-2.133q-.807-1.92-1.629-3.835c-.053-.124-.133-.237-.251-.446-.335.708-.627,1.319-.914,1.935-.675,1.446-1.354,2.891-2.013,4.346A1.755,1.755,0,0,1,41.1,18.314a17.283,17.283,0,0,0-2.2.179c-.37.044-.466-.092-.482-.441-.028-.687-.1-1.37-.165-2.055-.028-.294.048-.444.379-.45a8.586,8.586,0,0,0,1.384-.1.8.8,0,0,0,.512-.375c1.354-2.82,2.684-5.653,4.033-8.475.133-.278.322-.694.544-.735a4.652,4.652,0,0,1,1.563.051c.152.025.3.313.382.508.8,1.843,1.593,3.691,2.385,5.54.478,1.115.961,2.229,1.422,3.351a.551.551,0,0,0,.526.384c2.808.333,5.612.68,8.418,1.022.381.046.761.1,1.144.124a.712.712,0,0,1,.687.554,1.79,1.79,0,0,1-.6,2.383q-3.219,2.8-6.462,5.579a.935.935,0,0,0-.365,1.029q.953,4.693,1.843,9.4c.034.174-.124.384-.2.575-.011.025-.05.039-.074.058-.418.292-.82.784-1.255.818-.407.03-.857-.418-1.278-.669q-3.744-2.236-7.48-4.486a.627.627,0,0,0-.735,0q-4.307,2.409-8.634,4.778a.628.628,0,0,1-.536-.034,6.057,6.057,0,0,1-1.034-.852.844.844,0,0,1-.209-.65c.731-3.189,1.492-6.37,2.227-9.559a.659.659,0,0,0-.166-.522c-.712-.689-1.441-1.358-2.183-2.015-.235-.207-.26-.338-.027-.57.521-.519,1.018-1.062,1.512-1.606.177-.2.3-.22.5-.021,1.027.983,2.061,1.962,3.116,2.916a1.015,1.015,0,0,1,.382,1.014c-.2,1.016-.413,2.031-.643,3.042-.317,1.384-.655,2.764-.981,4.146a1.692,1.692,0,0,0,0,.315l.995-.554c1.579-.873,3.167-1.728,4.732-2.626.485-.278.914-.664,1.526-.536a2.114,2.114,0,0,1,.662.22c2,1.193,4,2.4,6,3.6a.664.664,0,0,0,.193.027" transform="translate(26.428 4.478)" fill="url(#linear-gradient)"/>
      <path id="Path_372" data-name="Path 372" d="M21.062,10.834c-.922,1.974-1.8,3.854-2.679,5.733-.113.246-.237.489-.349.735a1.65,1.65,0,0,1-1.567,1.03c-2.293.161-4.578.4-6.947.62.117.133.174.212.246.28,1.708,1.59,3.413,3.183,5.133,4.761a.988.988,0,0,1,.359,1.02q-.629,2.826-1.253,5.653c-.126.57-.246,1.14-.4,1.841l.995-.556c1.62-.9,3.242-1.792,4.858-2.7.4-.221.731-.607,1.253-.483a3.328,3.328,0,0,1,.929.29c1.923,1.14,3.831,2.305,5.745,3.461.092.057.191.1.366.193-.2-1.1-.389-2.132-.582-3.162-.257-1.381-.5-2.764-.781-4.141a1.077,1.077,0,0,1,.352-1.119c.891-.781,1.776-1.563,2.68-2.325a.436.436,0,0,1,.416.06c.575.62,1.124,1.262,1.723,1.947-.567.483-1.108.974-1.684,1.423a.873.873,0,0,0-.388.976c.616,3.05,1.19,6.112,1.816,9.16a.885.885,0,0,1-.411,1.071c-1.1.758-1.08.765-2.238.067-2.516-1.517-5.044-3.017-7.56-4.538a.724.724,0,0,0-.83-.005c-2.79,1.553-5.591,3.088-8.38,4.647A.653.653,0,0,1,11,36.73c-.365-.329-.954-.538-1.112-.933-.147-.366.14-.91.246-1.372.644-2.785,1.28-5.57,1.947-8.348a.9.9,0,0,0-.322-1.018c-1.971-1.8-3.907-3.64-5.865-5.455-.374-.347-.8-.63-1.181-.974a.589.589,0,0,1-.182-.462,10.225,10.225,0,0,1,.437-1.516.663.663,0,0,1,.473-.335q4.9-.425,9.8-.806a.676.676,0,0,0,.643-.453c1.248-2.728,2.565-5.425,3.743-8.183.335-.779.713-1.115,1.51-1.048a1.214,1.214,0,0,0,.382-.034.549.549,0,0,1,.71.386c.852,2,1.716,3.987,2.574,5.981.416.968.852,1.928,1.223,2.912a.908.908,0,0,0,.924.648,18.134,18.134,0,0,1,1.855.209.475.475,0,0,1,.3.343c-.069.795-.172,1.588-.294,2.376a.409.409,0,0,1-.324.227c-1.287-.129-2.572-.271-3.854-.444a.712.712,0,0,1-.421-.386c-.5-1.089-.97-2.188-1.441-3.288-.5-1.158-.983-2.321-1.477-3.481-.053-.127-.129-.244-.237-.444" transform="translate(3.49 4.444)" fill="url(#linear-gradient)"/>
      <path id="Path_373" data-name="Path 373" d="M.006,28.859c0-.938-.012-1.8.014-2.656,0-.112.182-.262.312-.312a1.36,1.36,0,0,1,.474-.016q6.931,0,13.863,0a3.056,3.056,0,0,1,3.2,2.337,3.553,3.553,0,0,1,.089.855q0,15.637,0,31.273a2.954,2.954,0,0,1-3.128,3.084c-3.58.011-7.161-.018-10.743-.019-1.2,0-2.4.027-3.6.058-.365.011-.512-.089-.487-.489.039-.62.012-1.246.009-1.87S0,60.5.62,60.5c4.6,0,9.208-.009,13.813.009.508,0,.6-.172.6-.637Q15,44.718,15.008,29.56c0-.673,0-.685-.634-.687q-6.5-.011-13-.014H.006" transform="translate(0 19.925)" fill="url(#linear-gradient)"/>
      <path id="Path_374" data-name="Path 374" d="M8.04,43.7a2.093,2.093,0,0,1-2.093,2.059,1.974,1.974,0,0,1-2.017-2.04,2.111,2.111,0,0,1,2.02-2.086A2.107,2.107,0,0,1,8.04,43.7" transform="translate(3.029 32.075)" fill="url(#linear-gradient)"/>
    </g>
  </g>
</svg>
