<svg id="Group_81" data-name="Group 81" xmlns="http://www.w3.org/2000/svg" xmlns:xlink="http://www.w3.org/1999/xlink" width="35.056" height="35.355" viewBox="0 0 35.056 35.355">
  <defs>
    <clipPath id="clip-path">
      <rect id="Rectangle_117" data-name="Rectangle 117" width="35.056" height="35.355" fill="#fff"/>
    </clipPath>
  </defs>
  <g id="Group_80" data-name="Group 80" clip-path="url(#clip-path)">
    <path id="Path_248" data-name="Path 248" d="M19.546,83.143c1.491-.864,2.937-1.713,4.394-2.543.733-.417,1.472-.83,2.234-1.189A3.735,3.735,0,0,1,29.1,79.3c1.823.63,3.657,1.227,5.494,1.815.492.158,1.011.231,1.515.35a1.439,1.439,0,0,1,1,1.984,1.345,1.345,0,0,1-1.638.732c-1.474-.369-2.942-.763-4.412-1.146-.082-.021-.162-.048-.245-.061a.6.6,0,0,0-.73.428.585.585,0,0,0,.445.749c.684.194,1.372.379,2.064.544,1.313.313,2.621.654,3.947.9a4.787,4.787,0,0,0,3.334-.693q2.548-1.488,5.1-2.97a7.39,7.39,0,0,1,2.467-1,3.215,3.215,0,0,1,.5-.046,1.451,1.451,0,0,1,1.56,1.032,1.623,1.623,0,0,1-.711,1.913q-5.4,3.356-10.794,6.712a4.3,4.3,0,0,1-3.361.584c-3.036-.684-6.079-1.339-9.117-2.013a1.032,1.032,0,0,0-.827.129c-.4.249-.813.473-1.269.737l-3.871-6.827" transform="translate(-14.517 -58.714)" fill="#fff"/>
    <path id="Path_249" data-name="Path 249" d="M6.3,101.262a2.691,2.691,0,0,1-.42-.456q-1.794-3.141-3.568-6.295Q1.239,92.622.171,90.733c-.278-.493-.236-.634.265-.919.556-.315,1.111-.632,1.669-.943.4-.223.579-.177.8.212q2.889,5.1,5.774,10.2c.224.4.175.586-.2.805-.6.343-1.2.679-1.8,1.013-.093.052-.2.083-.383.16M2.034,90.02a.706.706,0,0,0-.745.678.717.717,0,1,0,1.432.062.715.715,0,0,0-.687-.74" transform="translate(0 -65.907)" fill="#fff"/>
    <path id="Path_250" data-name="Path 250" d="M66.349.655a.714.714,0,0,1,.239-.481.693.693,0,0,1,.5-.172h.048a.7.7,0,0,1,.61.731V.767l-.1,1.488V2.3a.716.716,0,0,1-.234.44.7.7,0,0,1-.5.169h-.048a.689.689,0,0,1-.43-.223.7.7,0,0,1-.172-.5.16.16,0,0,1,0-.035l.1-1.494Zm-7.79,2.267a.7.7,0,0,1,.986-.986l1.075,1.091a.7.7,0,0,1,0,.986.707.707,0,0,1-.495.2.7.7,0,0,1-.491-.207L58.558,2.916ZM56.41,10.516a.69.69,0,0,1,.013-1.381h1.526a.693.693,0,0,1,.492.212.681.681,0,0,1,.2.5v.024a.691.691,0,0,1-.207.454.7.7,0,0,1-.5.2h-.027l-1.51-.016ZM75.716,9.2h.022a.693.693,0,0,1,.475.175.7.7,0,0,1,.234.481v.022a.694.694,0,0,1-.174.475.7.7,0,0,1-.481.234l-1.523.094a.7.7,0,0,1-.083-1.394c.51-.032,1.021-.067,1.531-.094ZM72.965,3a.693.693,0,0,1,.968-.151l0,0a.688.688,0,0,1,.269.454.715.715,0,0,1-.129.518l-.9,1.23a.7.7,0,0,1-.975.151.71.71,0,0,1-.269-.457.691.691,0,0,1,.143-.516L72.979,3ZM68.3,20.882a3.131,3.131,0,0,1-1.187,1.091,2.971,2.971,0,0,1-1.325.344,2.684,2.684,0,0,1-1.343-.322,2.735,2.735,0,0,1-.771-.629l4.612-.483Zm.537-2.544v.4a4.344,4.344,0,0,1-.011.6l-.11.43-5.59.572-.086-.228-.18-.9v-.269l5.993-.613Zm-5.04-7.72a2.005,2.005,0,0,1,.693.451,5.077,5.077,0,0,1,.451.484A18.547,18.547,0,0,1,66.5,9.565a13.256,13.256,0,0,1,1.641-1.574l.129-.043,1.405.062-.293.3a24.846,24.846,0,0,0-2.259,2.667A30.735,30.735,0,0,0,64.88,14.3a8.808,8.808,0,0,0-1.161-2.044,6.08,6.08,0,0,0-1.343-1.343l1.408-.3Zm-3.2-3.9a6.415,6.415,0,0,1,1.343-1.461,6.05,6.05,0,0,1,1.76-.983l.054-.016a6.4,6.4,0,0,1,1.469-.322,6.708,6.708,0,0,1,1.593.032A6.909,6.909,0,0,1,69.71,5.041a6.514,6.514,0,0,1,1.507,1.343,5.981,5.981,0,0,1,.973,1.722,6.715,6.715,0,0,1,.29,1.1,6.438,6.438,0,0,1-.07,2.549,6.949,6.949,0,0,1-.451,1.306A13.914,13.914,0,0,1,70.166,15.7c-.333.422-.664.841-.948,1.255a.854.854,0,0,1-.806.363l-5.024.521a.854.854,0,0,1-.908-.615,7.369,7.369,0,0,0-.425-1.117,4.482,4.482,0,0,0-.51-.838c-.242-.3-.489-.61-.736-.978a7.407,7.407,0,0,1-.7-1.289l-.016-.048a7.71,7.71,0,0,1-.43-1.429,6.577,6.577,0,0,1-.1-1.542A6.476,6.476,0,0,1,59.84,8.4a7.511,7.511,0,0,1,.682-1.572V6.811l.062-.094Z" transform="translate(-41.391 -0.001)" fill="#fff" fill-rule="evenodd"/>
  </g>
</svg>
