<svg id="Group_77" data-name="Group 77" xmlns="http://www.w3.org/2000/svg" xmlns:xlink="http://www.w3.org/1999/xlink" width="27.104" height="36.051" viewBox="0 0 27.104 36.051">
  <defs>
    <clipPath id="clip-path">
      <rect id="Rectangle_115" data-name="Rectangle 115" width="27.104" height="36.051" fill="#fff"/>
    </clipPath>
  </defs>
  <g id="Group_76" data-name="Group 76" clip-path="url(#clip-path)">
    <path id="Path_242" data-name="Path 242" d="M13.549,0a2.716,2.716,0,0,1,1.646.516c.648.411,1.367,1.218,2.262,1.728,1.256.719,3.585-.273,4.779,1.5a4.647,4.647,0,0,1,.78,2.64,4.647,4.647,0,0,0,1.091,2.828c1.467,1.933,1.76,3.227,1.012,4.565-.513.912-1.6,1.423-1.845,2-.534,1.235.056,2.162-.675,3.6a3.829,3.829,0,0,1-2.327,1.989c-.88.293-1.76-.126-2.461.17-1.235.522-2.148,1.728-3.142,2.033a3.813,3.813,0,0,1-2.268,0c-.983-.293-1.9-1.511-3.127-2.03-.7-.293-1.584.114-2.461-.17a3.814,3.814,0,0,1-2.329-1.989c-.731-1.438-.141-2.365-.675-3.6-.249-.587-1.332-1.088-1.845-2-.754-1.344-.449-2.64,1.015-4.565A4.7,4.7,0,0,0,4.07,6.388a4.59,4.59,0,0,1,.78-2.64c1.191-1.76,3.521-.78,4.779-1.5.88-.51,1.617-1.317,2.259-1.725A2.726,2.726,0,0,1,13.549,0m-.161,7.59c.164-.833,1.529-.067,1.617,1.273a5.722,5.722,0,0,1-.117,1.423h1.948c.81.032,1.517.613,1.018,1.564.114.417.132.9-.179,1.094a1.6,1.6,0,0,1-.481,1.382,1.639,1.639,0,0,1-.249.842c-.261.37-.475.293-.88.293H12.768a1.261,1.261,0,0,1-1.144-.587V11.22c.98-.264,1.5-1.608,1.76-2.488V7.593ZM9.318,10.7h1.49a.311.311,0,0,1,.311.311v4.143a.311.311,0,0,1-.308.314H9.318a.314.314,0,0,1-.311-.314V11.011a.314.314,0,0,1,.311-.311m.857,2.749a.393.393,0,1,1-.393.393.393.393,0,0,1,.393-.393M.995,33.174,4.4,32.566l1.681,3.007C7.3,37.084,8.074,34.6,8.429,33.737l3.242-6.158a9.192,9.192,0,0,1-2.6-1.863c-1.863.038-3.6-.293-4.876-1.91L.44,31.055l-.329.7c-.255.907-.12,1.505.88,1.42Zm25.1,0-3.389-.607L21.03,35.574c-1.22,1.511-2-.971-2.347-1.837l-3.26-6.158a9.151,9.151,0,0,0,2.6-1.863c1.863.038,3.6-.293,4.876-1.91l3.761,7.261.334.687c.255.907.12,1.505-.88,1.42ZM13.549,4.5a7.379,7.379,0,1,1-.018,0h.018" transform="translate(0 0)" fill="#fff" fill-rule="evenodd"/>
  </g>
</svg>
