<svg id="Group_83" data-name="Group 83" xmlns="http://www.w3.org/2000/svg" xmlns:xlink="http://www.w3.org/1999/xlink" width="40.451" height="35.355" viewBox="0 0 40.451 35.355">
  <defs>
    <clipPath id="clip-path">
      <rect id="Rectangle_118" data-name="Rectangle 118" width="40.451" height="35.355" fill="#fff"/>
    </clipPath>
  </defs>
  <g id="Group_82" data-name="Group 82" transform="translate(0 0)" clip-path="url(#clip-path)">
    <path id="Path_251" data-name="Path 251" d="M26.911,17.991l-.174.54-.026.046-.023.03a2.375,2.375,0,0,1-.658.076,4.227,4.227,0,0,0,.2-1.853.5.5,0,0,1,.2-.444,2.245,2.245,0,0,0,.783-1.116l.109-.859a1.621,1.621,0,0,0-.063-.346.251.251,0,0,0-.036-.1h-.086a.5.5,0,0,1-.474-.5,8.478,8.478,0,0,0-.451-3.335,4.736,4.736,0,0,0-2.2-1.735c-.161-.069-.329-.145-.494-.23-3.005,3.14-5.494-.9-9.059,5.185h-.122c-.046.105-.1.211-.142.329l-.026.053a.5.5,0,0,1-.688.184q-.122-.069-.138-.059c-.02,0-.043.053-.072.122a1.547,1.547,0,0,0-.109.5,3,3,0,0,0,.658,2.1.5.5,0,0,1,.155.349c.053,2.173,1.017,3,2.189,4.013l.494.428a5.521,5.521,0,0,0,3.621,1.587,4.941,4.941,0,0,0,3.46-1.56h1.478l-.267.253-.487.461a5.99,5.99,0,0,1-4.161,1.86,6.56,6.56,0,0,1-4.3-1.843l-.481-.421a5.725,5.725,0,0,1-2.443-3.69l-1.587.128a1.178,1.178,0,0,1-1.333-.965l-.616-4.865a1.169,1.169,0,0,1,1.039-1.285l.018,0,.517-.043a.588.588,0,0,1-.053-.214c-.309-5.053,1.87-8.23,4.816-9.754a9.8,9.8,0,0,1,9.583.5c2.693,1.735,4.451,4.908,3.661,9.323a.806.806,0,0,1-.059.178l.787.089a1.254,1.254,0,0,1,1.119,1.376c0,.01,0,.02,0,.03l-.609,4.628a1.294,1.294,0,0,1-1.445,1.083,9.257,9.257,0,0,1-.329,1.03,2.307,2.307,0,0,1-.494.767c-.658.678-2.785.678-3.539.678H22.579a2.3,2.3,0,0,1-1.728.658c-1.093,0-1.975-.579-1.975-1.294s.882-1.294,1.975-1.294a2.324,2.324,0,0,1,1.666.655h2.025c.593,0,2.35,0,2.653-.306a.986.986,0,0,0,.211-.329l.224-.7-.718-.082Zm-14.4-9.046C13.628,3.724,19.715.468,25.492,3.783A6.155,6.155,0,0,1,26.9,4.889a6.956,6.956,0,0,0-2.245-2.3A8.179,8.179,0,0,0,20.68,1.318a8.029,8.029,0,0,0-4.089.833,7.782,7.782,0,0,0-4.082,6.794m2.232,15.087,3.035,7.963L19.3,27.653l-.747-.816c-.563-.823-.369-1.755.658-1.922a7.518,7.518,0,0,1,1.129-.023,5.951,5.951,0,0,1,1.241.049c.968.211,1.07,1.149.586,1.9l-.734.816L22.961,32l2.749-7.966c1.975,1.784,8.957,2.143,11.14,3.358,3.022,1.692,2.94,4.938,3.6,7.966H0c.658-3,.589-6.3,3.6-7.966,2.683-1.5,8.944-1.383,11.14-3.358" transform="translate(0 0)" fill="#fff"/>
  </g>
</svg>
