<svg id="Group_79" data-name="Group 79" xmlns="http://www.w3.org/2000/svg" xmlns:xlink="http://www.w3.org/1999/xlink" width="35.056" height="36.051" viewBox="0 0 35.056 36.051">
  <defs>
    <clipPath id="clip-path">
      <rect id="Rectangle_116" data-name="Rectangle 116" width="35.056" height="36.051" fill="#fff"/>
    </clipPath>
  </defs>
  <g id="Group_78" data-name="Group 78" clip-path="url(#clip-path)">
    <path id="Path_243" data-name="Path 243" d="M19.546,85.846c1.491-.864,2.937-1.713,4.394-2.543.733-.417,1.472-.83,2.234-1.189A3.735,3.735,0,0,1,29.1,82c1.823.63,3.657,1.227,5.494,1.815.492.158,1.011.231,1.515.35a1.439,1.439,0,0,1,1,1.984,1.345,1.345,0,0,1-1.638.732c-1.474-.369-2.942-.763-4.412-1.146-.082-.021-.162-.048-.245-.061a.6.6,0,0,0-.73.428.585.585,0,0,0,.445.749c.684.194,1.372.379,2.064.544,1.313.313,2.621.654,3.947.9a4.787,4.787,0,0,0,3.334-.693q2.548-1.488,5.1-2.97a7.39,7.39,0,0,1,2.467-1,3.212,3.212,0,0,1,.5-.046,1.451,1.451,0,0,1,1.56,1.033,1.623,1.623,0,0,1-.711,1.913q-5.4,3.356-10.794,6.712a4.3,4.3,0,0,1-3.361.584c-3.036-.684-6.079-1.339-9.117-2.013a1.032,1.032,0,0,0-.827.129c-.4.249-.813.473-1.269.737l-3.871-6.827" transform="translate(-14.517 -60.722)" fill="#fff"/>
    <path id="Path_244" data-name="Path 244" d="M44.063,43.689c-.009-.189-.008-.369-.027-.548a.634.634,0,0,0-1.265.011.712.712,0,0,0-.005.181c.045.276-.067.389-.343.468a2.429,2.429,0,0,0-1.813,2.881A2.042,2.042,0,0,0,41.845,48.2c.548.236,1.151.34,1.721.528a5.164,5.164,0,0,1,1.226.5.923.923,0,0,1,.092,1.515.692.692,0,0,1-.547.1c-1.4-.456-2.8-.91-4.176-1.427a5.062,5.062,0,0,0-4.138.238c-.619.3-1.212.649-1.817.976-.081.044-.165.083-.359.18-.006-.754-.059-1.438-.008-2.114A9.375,9.375,0,0,1,35.852,43.8c1.1-1.482,2.292-2.9,3.456-4.329a.569.569,0,0,1,.393-.123c.264,0,.529.049.793.05q2.936.007,5.871,0a1.7,1.7,0,0,0,.575-.035c.4-.152.607.069.841.337a34.56,34.56,0,0,1,4.024,5.347,7.949,7.949,0,0,1,.56,7.557c-.1.231-.228.452-.343.678a2.705,2.705,0,0,1-1.3,1.3c-.6.276-1.179.6-1.773.892a2.566,2.566,0,0,1-.46.12,2.618,2.618,0,0,0,.123-2.868,3.03,3.03,0,0,0-2.512-1.379,2.254,2.254,0,0,0,.348-1.8A2.335,2.335,0,0,0,44.921,47.8c-.523-.205-1.091-.3-1.634-.452a4.543,4.543,0,0,1-.915-.324,1,1,0,0,1-.162-1.674,1.879,1.879,0,0,1,2.773.45c.3.53.623.688.991.489s.428-.615.13-1.138a3.007,3.007,0,0,0-2.04-1.46" transform="translate(-25.117 -29.2)" fill="#fff"/>
    <path id="Path_245" data-name="Path 245" d="M6.3,103.965a2.69,2.69,0,0,1-.42-.456q-1.794-3.141-3.568-6.295Q1.239,95.325.171,93.436c-.278-.493-.236-.634.265-.919.556-.315,1.111-.632,1.669-.943.4-.223.579-.177.8.212q2.889,5.1,5.774,10.2c.224.4.175.586-.2.805-.6.343-1.2.679-1.8,1.013-.093.052-.2.083-.383.16M2.034,92.723a.706.706,0,0,0-.745.678.717.717,0,1,0,1.432.062.715.715,0,0,0-.687-.74" transform="translate(0 -67.914)" fill="#fff"/>
    <path id="Path_246" data-name="Path 246" d="M57.272,5.035c-.965,0-1.931.01-2.9-.009a.847.847,0,0,1-.5-.2c-.335-.294-.644-.619-.952-.941a1.457,1.457,0,0,1,1.737-2.309.763.763,0,0,0,1.229-.495A1.457,1.457,0,0,1,58.71,1.1a.761.761,0,0,0,1.211.489,1.457,1.457,0,0,1,1.714,2.337c-.363.37-.68.864-1.123,1.054a4.117,4.117,0,0,1-1.5.058c-.579,0-1.159,0-1.738,0" transform="translate(-38.984 -0.001)" fill="#fff"/>
    <path id="Path_247" data-name="Path 247" d="M57.921,26.9c-1.074,0-2.149.015-3.223-.006A1.371,1.371,0,0,1,53.4,25.91a1.333,1.333,0,0,1,.456-1.495,1.781,1.781,0,0,1,.926-.336c2.088-.029,4.177-.023,6.266-.012a1.418,1.418,0,1,1,.019,2.836c-1.05.017-2.1,0-3.151,0V26.9" transform="translate(-39.615 -17.868)" fill="#fff"/>
  </g>
</svg>
